<svg width="31" height="31" viewBox="0 0 31 31" fill="none" xmlns="http://www.w3.org/2000/svg">
<g clip-path="url(#clip0_1_502)">
<path d="M15.5 6.125C9.25 6.125 3.9125 10.0125 1.75 15.5C3.9125 20.9875 9.25 24.875 15.5 24.875C21.7563 24.875 27.0875 20.9875 29.25 15.5C27.0875 10.0125 21.7563 6.125 15.5 6.125ZM15.5 21.75C12.05 21.75 9.25 18.95 9.25 15.5C9.25 12.05 12.05 9.25 15.5 9.25C18.95 9.25 21.75 12.05 21.75 15.5C21.75 18.95 18.95 21.75 15.5 21.75ZM15.5 11.75C13.4312 11.75 11.75 13.4313 11.75 15.5C11.75 17.5688 13.4312 19.25 15.5 19.25C17.5688 19.25 19.25 17.5688 19.25 15.5C19.25 13.4313 17.5688 11.75 15.5 11.75Z" fill="white"/>
</g>
<defs>
<clipPath id="clip0_1_502">
<rect width="30" height="30" fill="white" transform="translate(0.5 0.5)"/>
</clipPath>
</defs>
</svg>
