<svg width="737" height="103" viewBox="0 0 737 103" fill="none" xmlns="http://www.w3.org/2000/svg">
<path d="M133.264 27.64L123.984 9.8H128.064L135.904 25.08L134.384 24.64H139.104L137.504 25.08L144.864 9.8H148.704L139.984 27.64H133.264ZM134.704 39V26.84H138.544V39H134.704ZM160.731 39.72C158.864 39.72 157.224 39.4 155.811 38.76C154.398 38.12 153.198 37.28 152.211 36.24C151.251 35.1733 150.518 33.9867 150.011 32.68C149.531 31.3733 149.291 30.04 149.291 28.68V27.96C149.291 26.6 149.544 25.2667 150.051 23.96C150.558 22.6267 151.304 21.44 152.291 20.4C153.278 19.3333 154.478 18.4933 155.891 17.88C157.304 17.24 158.918 16.92 160.731 16.92C162.544 16.92 164.158 17.24 165.571 17.88C166.984 18.4933 168.184 19.3333 169.171 20.4C170.158 21.44 170.904 22.6267 171.411 23.96C171.918 25.2667 172.171 26.6 172.171 27.96V28.68C172.171 30.04 171.918 31.3733 171.411 32.68C170.931 33.9867 170.198 35.1733 169.211 36.24C168.251 37.28 167.064 38.12 165.651 38.76C164.238 39.4 162.598 39.72 160.731 39.72ZM160.731 36.28C162.331 36.28 163.691 35.9333 164.811 35.24C165.958 34.52 166.824 33.56 167.411 32.36C168.024 31.16 168.331 29.8133 168.331 28.32C168.331 26.8 168.024 25.44 167.411 24.24C166.798 23.04 165.918 22.0933 164.771 21.4C163.651 20.7067 162.304 20.36 160.731 20.36C159.184 20.36 157.838 20.7067 156.691 21.4C155.544 22.0933 154.664 23.04 154.051 24.24C153.438 25.44 153.131 26.8 153.131 28.32C153.131 29.8133 153.424 31.16 154.011 32.36C154.624 33.56 155.491 34.52 156.611 35.24C157.758 35.9333 159.131 36.28 160.731 36.28ZM185.322 39.64C182.789 39.64 180.842 38.8133 179.482 37.16C178.122 35.5067 177.442 33.12 177.442 30V17.6H181.282V30.76C181.282 32.44 181.736 33.76 182.642 34.72C183.549 35.6533 184.776 36.12 186.322 36.12C187.922 36.12 189.229 35.6133 190.242 34.6C191.256 33.56 191.762 32.1467 191.762 30.36V17.6H195.602V39H192.562V29.84H193.042C193.042 31.9467 192.762 33.7333 192.202 35.2C191.642 36.64 190.802 37.7467 189.682 38.52C188.589 39.2667 187.189 39.64 185.482 39.64H185.322ZM201.279 21.96V19.88H201.639C202.493 19.88 203.173 19.7333 203.679 19.44C204.186 19.1467 204.546 18.6933 204.759 18.08C204.999 17.44 205.119 16.64 205.119 15.68V12.68L206.079 14.48C205.893 14.5867 205.639 14.6667 205.319 14.72C205.026 14.7733 204.733 14.8 204.439 14.8C203.693 14.8 203.066 14.5733 202.559 14.12C202.079 13.64 201.839 12.9867 201.839 12.16C201.839 11.3867 202.066 10.7467 202.519 10.24C202.999 9.73333 203.639 9.48 204.439 9.48C204.946 9.48 205.426 9.6 205.879 9.84C206.333 10.08 206.706 10.5067 206.999 11.12C207.293 11.7333 207.439 12.6133 207.439 13.76V14.6C207.439 16.5467 207.199 18.0533 206.719 19.12C206.239 20.1867 205.559 20.9333 204.679 21.36C203.799 21.76 202.759 21.96 201.559 21.96H201.279ZM217.678 39L210.398 17.64H214.398L221.518 39H217.678ZM218.638 39V35.96H223.278V39H218.638ZM220.478 39L226.678 17.64H230.438L224.118 39H220.478ZM244.151 39.72C242.284 39.72 240.671 39.4 239.311 38.76C237.951 38.12 236.844 37.28 235.991 36.24C235.137 35.1733 234.497 33.9867 234.071 32.68C233.671 31.3733 233.471 30.04 233.471 28.68V27.96C233.471 26.5733 233.671 25.2267 234.071 23.92C234.497 22.6133 235.137 21.44 235.991 20.4C236.844 19.3333 237.924 18.4933 239.231 17.88C240.564 17.24 242.124 16.92 243.911 16.92C246.231 16.92 248.137 17.4267 249.631 18.44C251.151 19.4267 252.271 20.7067 252.991 22.28C253.737 23.8533 254.111 25.5333 254.111 27.32V29.04H235.151V26.16H251.311L250.431 27.72C250.431 26.2 250.191 24.8933 249.711 23.8C249.231 22.68 248.511 21.8133 247.551 21.2C246.591 20.5867 245.377 20.28 243.911 20.28C242.391 20.28 241.124 20.6267 240.111 21.32C239.124 22.0133 238.377 22.96 237.871 24.16C237.391 25.36 237.151 26.7467 237.151 28.32C237.151 29.84 237.391 31.2133 237.871 32.44C238.377 33.64 239.151 34.6 240.191 35.32C241.231 36.0133 242.551 36.36 244.151 36.36C245.831 36.36 247.191 35.9867 248.231 35.24C249.297 34.4933 249.937 33.6267 250.151 32.64H253.751C253.457 34.1067 252.871 35.3733 251.991 36.44C251.111 37.5067 250.004 38.32 248.671 38.88C247.337 39.44 245.831 39.72 244.151 39.72ZM279.944 39.72C278.184 39.72 276.611 39.3333 275.224 38.56C273.864 37.7867 272.784 36.6667 271.984 35.2C271.184 33.7067 270.744 31.92 270.664 29.84H271.704V39H268.664V9.8H272.504V24L271.144 26.92C271.251 24.6 271.718 22.7067 272.544 21.24C273.371 19.7733 274.451 18.6933 275.784 18C277.144 17.28 278.638 16.92 280.264 16.92C281.784 16.92 283.171 17.2133 284.424 17.8C285.678 18.36 286.758 19.1467 287.664 20.16C288.571 21.1467 289.264 22.3067 289.744 23.64C290.224 24.9467 290.464 26.36 290.464 27.88V28.6C290.464 30.12 290.211 31.5467 289.704 32.88C289.224 34.2133 288.518 35.4 287.584 36.44C286.651 37.4533 285.531 38.2533 284.224 38.84C282.944 39.4267 281.518 39.72 279.944 39.72ZM279.504 36.36C280.944 36.36 282.198 36.0133 283.264 35.32C284.331 34.6267 285.158 33.68 285.744 32.48C286.331 31.2533 286.624 29.84 286.624 28.24C286.624 26.64 286.318 25.24 285.704 24.04C285.118 22.84 284.291 21.92 283.224 21.28C282.158 20.6133 280.918 20.28 279.504 20.28C278.224 20.28 277.038 20.5733 275.944 21.16C274.851 21.72 273.971 22.5467 273.304 23.64C272.664 24.7067 272.344 26 272.344 27.52V29.36C272.344 30.8267 272.678 32.08 273.344 33.12C274.011 34.16 274.891 34.96 275.984 35.52C277.078 36.08 278.251 36.36 279.504 36.36ZM305.323 39.72C303.456 39.72 301.843 39.4 300.483 38.76C299.123 38.12 298.016 37.28 297.163 36.24C296.309 35.1733 295.669 33.9867 295.243 32.68C294.843 31.3733 294.643 30.04 294.643 28.68V27.96C294.643 26.5733 294.843 25.2267 295.243 23.92C295.669 22.6133 296.309 21.44 297.163 20.4C298.016 19.3333 299.096 18.4933 300.403 17.88C301.736 17.24 303.296 16.92 305.083 16.92C307.403 16.92 309.309 17.4267 310.803 18.44C312.323 19.4267 313.443 20.7067 314.163 22.28C314.909 23.8533 315.283 25.5333 315.283 27.32V29.04H296.323V26.16H312.483L311.603 27.72C311.603 26.2 311.363 24.8933 310.883 23.8C310.403 22.68 309.683 21.8133 308.723 21.2C307.763 20.5867 306.549 20.28 305.083 20.28C303.563 20.28 302.296 20.6267 301.283 21.32C300.296 22.0133 299.549 22.96 299.043 24.16C298.563 25.36 298.323 26.7467 298.323 28.32C298.323 29.84 298.563 31.2133 299.043 32.44C299.549 33.64 300.323 34.6 301.363 35.32C302.403 36.0133 303.723 36.36 305.323 36.36C307.003 36.36 308.363 35.9867 309.403 35.24C310.469 34.4933 311.109 33.6267 311.323 32.64H314.923C314.629 34.1067 314.043 35.3733 313.163 36.44C312.283 37.5067 311.176 38.32 309.843 38.88C308.509 39.44 307.003 39.72 305.323 39.72ZM329.815 39.72C327.948 39.72 326.335 39.4 324.975 38.76C323.615 38.12 322.508 37.28 321.655 36.24C320.801 35.1733 320.161 33.9867 319.735 32.68C319.335 31.3733 319.135 30.04 319.135 28.68V27.96C319.135 26.5733 319.335 25.2267 319.735 23.92C320.161 22.6133 320.801 21.44 321.655 20.4C322.508 19.3333 323.588 18.4933 324.895 17.88C326.228 17.24 327.788 16.92 329.575 16.92C331.895 16.92 333.801 17.4267 335.295 18.44C336.815 19.4267 337.935 20.7067 338.655 22.28C339.401 23.8533 339.775 25.5333 339.775 27.32V29.04H320.815V26.16H336.975L336.095 27.72C336.095 26.2 335.855 24.8933 335.375 23.8C334.895 22.68 334.175 21.8133 333.215 21.2C332.255 20.5867 331.041 20.28 329.575 20.28C328.055 20.28 326.788 20.6267 325.775 21.32C324.788 22.0133 324.041 22.96 323.535 24.16C323.055 25.36 322.815 26.7467 322.815 28.32C322.815 29.84 323.055 31.2133 323.535 32.44C324.041 33.64 324.815 34.6 325.855 35.32C326.895 36.0133 328.215 36.36 329.815 36.36C331.495 36.36 332.855 35.9867 333.895 35.24C334.961 34.4933 335.601 33.6267 335.815 32.64H339.415C339.121 34.1067 338.535 35.3733 337.655 36.44C336.775 37.5067 335.668 38.32 334.335 38.88C333.001 39.44 331.495 39.72 329.815 39.72ZM345.227 39V17.64H348.267V26.8H347.787C347.787 24.6933 348.067 22.92 348.627 21.48C349.214 20.0133 350.094 18.9067 351.267 18.16C352.44 17.3867 353.92 17 355.707 17H355.867C358.56 17 360.547 17.84 361.827 19.52C363.134 21.2 363.787 23.6267 363.787 26.8V39H359.947V26C359.947 24.3467 359.48 23.0267 358.547 22.04C357.614 21.0267 356.334 20.52 354.707 20.52C353.027 20.52 351.667 21.04 350.627 22.08C349.587 23.12 349.067 24.5067 349.067 26.24V39H345.227ZM398.874 39L386.994 25.36H382.714L396.274 9.8H400.754L388.434 23.88L388.074 21.12L403.754 39H398.874ZM380.474 39V9.8H384.394V39H380.474ZM408.064 39V17.64H411.904V39H408.064ZM404.784 20.68V17.64H411.904V20.68H404.784ZM409.144 14.2C408.29 14.2 407.65 13.9733 407.224 13.52C406.824 13.0667 406.624 12.4933 406.624 11.8C406.624 11.1067 406.824 10.5333 407.224 10.08C407.65 9.62667 408.29 9.4 409.144 9.4C409.997 9.4 410.624 9.62667 411.024 10.08C411.45 10.5333 411.664 11.1067 411.664 11.8C411.664 12.4933 411.45 13.0667 411.024 13.52C410.624 13.9733 409.997 14.2 409.144 14.2ZM428.488 39.72C426.648 39.72 425.048 39.4 423.688 38.76C422.355 38.12 421.248 37.2667 420.368 36.2C419.488 35.1067 418.822 33.9067 418.368 32.6C417.942 31.2933 417.728 29.9867 417.728 28.68V27.96C417.728 26.6 417.942 25.2667 418.368 23.96C418.822 22.6533 419.488 21.48 420.368 20.44C421.275 19.3733 422.395 18.52 423.728 17.88C425.062 17.24 426.622 16.92 428.408 16.92C430.195 16.92 431.795 17.2533 433.208 17.92C434.648 18.5867 435.795 19.5333 436.648 20.76C437.528 21.96 438.022 23.3867 438.128 25.04H434.448C434.262 23.7067 433.648 22.6 432.608 21.72C431.568 20.8133 430.168 20.36 428.408 20.36C426.888 20.36 425.622 20.7067 424.608 21.4C423.595 22.0933 422.835 23.04 422.328 24.24C421.822 25.44 421.568 26.8 421.568 28.32C421.568 29.7867 421.822 31.1333 422.328 32.36C422.835 33.56 423.595 34.52 424.608 35.24C425.648 35.9333 426.942 36.28 428.488 36.28C429.688 36.28 430.728 36.0667 431.608 35.64C432.488 35.2133 433.195 34.64 433.728 33.92C434.262 33.2 434.582 32.3867 434.688 31.48H438.368C438.288 33.16 437.795 34.6133 436.888 35.84C436.008 37.0667 434.835 38.0267 433.368 38.72C431.928 39.3867 430.302 39.72 428.488 39.72ZM458.306 39L450.266 29.04H446.746L456.546 17.64H460.586L451.706 27.92L451.986 25.88L462.746 39H458.306ZM443.586 39V9.8H447.426V39H443.586ZM475.127 39.72C473.261 39.72 471.647 39.4 470.287 38.76C468.927 38.12 467.821 37.28 466.967 36.24C466.114 35.1733 465.474 33.9867 465.047 32.68C464.647 31.3733 464.447 30.04 464.447 28.68V27.96C464.447 26.5733 464.647 25.2267 465.047 23.92C465.474 22.6133 466.114 21.44 466.967 20.4C467.821 19.3333 468.901 18.4933 470.207 17.88C471.541 17.24 473.101 16.92 474.887 16.92C477.207 16.92 479.114 17.4267 480.607 18.44C482.127 19.4267 483.247 20.7067 483.967 22.28C484.714 23.8533 485.087 25.5333 485.087 27.32V29.04H466.127V26.16H482.287L481.407 27.72C481.407 26.2 481.167 24.8933 480.687 23.8C480.207 22.68 479.487 21.8133 478.527 21.2C477.567 20.5867 476.354 20.28 474.887 20.28C473.367 20.28 472.101 20.6267 471.087 21.32C470.101 22.0133 469.354 22.96 468.847 24.16C468.367 25.36 468.127 26.7467 468.127 28.32C468.127 29.84 468.367 31.2133 468.847 32.44C469.354 33.64 470.127 34.6 471.167 35.32C472.207 36.0133 473.527 36.36 475.127 36.36C476.807 36.36 478.167 35.9867 479.207 35.24C480.274 34.4933 480.914 33.6267 481.127 32.64H484.727C484.434 34.1067 483.847 35.3733 482.967 36.44C482.087 37.5067 480.981 38.32 479.647 38.88C478.314 39.44 476.807 39.72 475.127 39.72ZM499.459 39.72C497.939 39.72 496.539 39.44 495.259 38.88C493.979 38.32 492.859 37.5333 491.899 36.52C490.966 35.5067 490.233 34.3333 489.699 33C489.193 31.6667 488.939 30.2267 488.939 28.68V27.96C488.939 26.44 489.193 25.0133 489.699 23.68C490.206 22.3467 490.913 21.1733 491.819 20.16C492.753 19.1467 493.846 18.36 495.099 17.8C496.379 17.2133 497.793 16.92 499.339 16.92C500.966 16.92 502.446 17.2667 503.779 17.96C505.113 18.6267 506.206 19.68 507.059 21.12C507.913 22.56 508.393 24.4267 508.499 26.72L506.899 24.16V9.8H510.739V39H507.699V29.52H508.819C508.713 31.9467 508.206 33.92 507.299 35.44C506.393 36.9333 505.246 38.0267 503.859 38.72C502.499 39.3867 501.033 39.72 499.459 39.72ZM499.979 36.36C501.286 36.36 502.473 36.0667 503.539 35.48C504.606 34.8933 505.459 34.0533 506.099 32.96C506.739 31.84 507.059 30.5333 507.059 29.04V27.2C507.059 25.7333 506.726 24.4933 506.059 23.48C505.419 22.44 504.553 21.6533 503.459 21.12C502.393 20.56 501.219 20.28 499.939 20.28C498.526 20.28 497.273 20.6133 496.179 21.28C495.113 21.9467 494.273 22.88 493.659 24.08C493.073 25.28 492.779 26.6933 492.779 28.32C492.779 29.9467 493.086 31.3733 493.699 32.6C494.313 33.8 495.166 34.7333 496.259 35.4C497.353 36.04 498.593 36.36 499.979 36.36ZM537.059 39.72C535.192 39.72 533.552 39.4 532.139 38.76C530.726 38.12 529.526 37.28 528.539 36.24C527.579 35.1733 526.846 33.9867 526.339 32.68C525.859 31.3733 525.619 30.04 525.619 28.68V27.96C525.619 26.6 525.872 25.2667 526.379 23.96C526.886 22.6267 527.632 21.44 528.619 20.4C529.606 19.3333 530.806 18.4933 532.219 17.88C533.632 17.24 535.246 16.92 537.059 16.92C538.872 16.92 540.486 17.24 541.899 17.88C543.312 18.4933 544.512 19.3333 545.499 20.4C546.486 21.44 547.232 22.6267 547.739 23.96C548.246 25.2667 548.499 26.6 548.499 27.96V28.68C548.499 30.04 548.246 31.3733 547.739 32.68C547.259 33.9867 546.526 35.1733 545.539 36.24C544.579 37.28 543.392 38.12 541.979 38.76C540.566 39.4 538.926 39.72 537.059 39.72ZM537.059 36.28C538.659 36.28 540.019 35.9333 541.139 35.24C542.286 34.52 543.152 33.56 543.739 32.36C544.352 31.16 544.659 29.8133 544.659 28.32C544.659 26.8 544.352 25.44 543.739 24.24C543.126 23.04 542.246 22.0933 541.099 21.4C539.979 20.7067 538.632 20.36 537.059 20.36C535.512 20.36 534.166 20.7067 533.019 21.4C531.872 22.0933 530.992 23.04 530.379 24.24C529.766 25.44 529.459 26.8 529.459 28.32C529.459 29.8133 529.752 31.16 530.339 32.36C530.952 33.56 531.819 34.52 532.939 35.24C534.086 35.9333 535.459 36.28 537.059 36.28ZM561.65 39.64C559.117 39.64 557.17 38.8133 555.81 37.16C554.45 35.5067 553.77 33.12 553.77 30V17.6H557.61V30.76C557.61 32.44 558.064 33.76 558.97 34.72C559.877 35.6533 561.104 36.12 562.65 36.12C564.25 36.12 565.557 35.6133 566.57 34.6C567.584 33.56 568.09 32.1467 568.09 30.36V17.6H571.93V39H568.89V29.84H569.37C569.37 31.9467 569.09 33.7333 568.53 35.2C567.97 36.64 567.13 37.7467 566.01 38.52C564.917 39.2667 563.517 39.64 561.81 39.64H561.65ZM587.688 39.24C586.088 39.24 584.701 39.0133 583.528 38.56C582.381 38.1067 581.488 37.3333 580.848 36.24C580.234 35.12 579.928 33.6133 579.928 31.72V11.16H583.608V32.2C583.608 33.3467 583.914 34.24 584.528 34.88C585.168 35.4933 586.061 35.8 587.208 35.8H590.968V39.24H587.688ZM576.248 20.52V17.64H590.968V20.52H576.248ZM605.78 30.28V9.8H609.7V30.28H605.78ZM605.42 39V34.12H610.06V39H605.42Z" fill="black"/>
<path d="M43.0516 73V59.13H44.9136V73H43.0516ZM44.5336 73V71.328H50.8796V73H44.5336ZM57.7203 73.342C56.8337 73.342 56.0547 73.19 55.3833 72.886C54.712 72.582 54.142 72.183 53.6733 71.689C53.2173 71.1823 52.869 70.6187 52.6283 69.998C52.4003 69.3773 52.2863 68.744 52.2863 68.098V67.756C52.2863 67.11 52.4067 66.4767 52.6473 65.856C52.888 65.2227 53.2427 64.659 53.7113 64.165C54.18 63.6583 54.75 63.2593 55.4213 62.968C56.0927 62.664 56.859 62.512 57.7203 62.512C58.5817 62.512 59.348 62.664 60.0193 62.968C60.6907 63.2593 61.2607 63.6583 61.7293 64.165C62.198 64.659 62.5527 65.2227 62.7933 65.856C63.034 66.4767 63.1543 67.11 63.1543 67.756V68.098C63.1543 68.744 63.034 69.3773 62.7933 69.998C62.5653 70.6187 62.217 71.1823 61.7483 71.689C61.2923 72.183 60.7287 72.582 60.0573 72.886C59.386 73.19 58.607 73.342 57.7203 73.342ZM57.7203 71.708C58.4803 71.708 59.1263 71.5433 59.6583 71.214C60.203 70.872 60.6147 70.416 60.8933 69.846C61.1847 69.276 61.3303 68.6363 61.3303 67.927C61.3303 67.205 61.1847 66.559 60.8933 65.989C60.602 65.419 60.184 64.9693 59.6393 64.64C59.1073 64.3107 58.4677 64.146 57.7203 64.146C56.9857 64.146 56.346 64.3107 55.8013 64.64C55.2567 64.9693 54.8387 65.419 54.5473 65.989C54.256 66.559 54.1103 67.205 54.1103 67.927C54.1103 68.6363 54.2497 69.276 54.5283 69.846C54.8197 70.416 55.2313 70.872 55.7633 71.214C56.308 71.5433 56.9603 71.708 57.7203 71.708ZM70.5602 73.342C69.6735 73.342 68.8945 73.19 68.2232 72.886C67.5519 72.582 66.9819 72.183 66.5132 71.689C66.0572 71.1823 65.7089 70.6187 65.4682 69.998C65.2402 69.3773 65.1262 68.744 65.1262 68.098V67.756C65.1262 67.11 65.2465 66.4767 65.4872 65.856C65.7279 65.2227 66.0825 64.659 66.5512 64.165C67.0199 63.6583 67.5899 63.2593 68.2612 62.968C68.9325 62.664 69.6989 62.512 70.5602 62.512C71.4215 62.512 72.1879 62.664 72.8592 62.968C73.5305 63.2593 74.1005 63.6583 74.5692 64.165C75.0379 64.659 75.3925 65.2227 75.6332 65.856C75.8739 66.4767 75.9942 67.11 75.9942 67.756V68.098C75.9942 68.744 75.8739 69.3773 75.6332 69.998C75.4052 70.6187 75.0569 71.1823 74.5882 71.689C74.1322 72.183 73.5685 72.582 72.8972 72.886C72.2259 73.19 71.4469 73.342 70.5602 73.342ZM70.5602 71.708C71.3202 71.708 71.9662 71.5433 72.4982 71.214C73.0429 70.872 73.4545 70.416 73.7332 69.846C74.0245 69.276 74.1702 68.6363 74.1702 67.927C74.1702 67.205 74.0245 66.559 73.7332 65.989C73.4419 65.419 73.0239 64.9693 72.4792 64.64C71.9472 64.3107 71.3075 64.146 70.5602 64.146C69.8255 64.146 69.1859 64.3107 68.6412 64.64C68.0965 64.9693 67.6785 65.419 67.3872 65.989C67.0959 66.559 66.9502 67.205 66.9502 67.927C66.9502 68.6363 67.0895 69.276 67.3682 69.846C67.6595 70.416 68.0712 70.872 68.6032 71.214C69.1479 71.5433 69.8002 71.708 70.5602 71.708ZM85.718 73L81.899 68.269H80.227L84.882 62.854H86.801L82.583 67.737L82.716 66.768L87.827 73H85.718ZM78.726 73V59.13H80.55V73H78.726ZM92.7942 73.304C91.4642 73.304 90.4319 73.019 89.6972 72.449C88.9752 71.879 88.6015 71.1 88.5762 70.112H90.2862C90.3115 70.5047 90.5079 70.8783 90.8752 71.233C91.2552 71.575 91.8949 71.746 92.7942 71.746C93.6049 71.746 94.2255 71.5877 94.6562 71.271C95.0869 70.9417 95.3022 70.5427 95.3022 70.074C95.3022 69.656 95.1439 69.333 94.8272 69.105C94.5105 68.8643 93.9975 68.706 93.2882 68.63L92.1862 68.516C91.2235 68.4147 90.4382 68.1297 89.8302 67.661C89.2222 67.1797 88.9182 66.5083 88.9182 65.647C88.9182 65.001 89.0829 64.45 89.4122 63.994C89.7415 63.5253 90.1975 63.1707 90.7802 62.93C91.3629 62.6767 92.0342 62.55 92.7942 62.55C93.9342 62.55 94.8589 62.8033 95.5682 63.31C96.2775 63.8167 96.6449 64.5703 96.6702 65.571H94.9602C94.9475 65.1657 94.7575 64.8237 94.3902 64.545C94.0355 64.2537 93.5035 64.108 92.7942 64.108C92.0849 64.108 91.5465 64.2537 91.1792 64.545C90.8119 64.8363 90.6282 65.2037 90.6282 65.647C90.6282 66.027 90.7549 66.331 91.0082 66.559C91.2742 66.787 91.7049 66.9327 92.3002 66.996L93.4022 67.11C94.4915 67.224 95.3655 67.528 96.0242 68.022C96.6829 68.5033 97.0122 69.1873 97.0122 70.074C97.0122 70.7073 96.8285 71.271 96.4612 71.765C96.1065 72.2463 95.6125 72.6263 94.9792 72.905C94.3459 73.171 93.6175 73.304 92.7942 73.304ZM104.093 73V59.13H105.917V73H104.093ZM102.687 60.574V59.13H105.917V60.574H102.687ZM109.909 73V62.854H111.733V73H109.909ZM108.351 64.298V62.854H111.733V64.298H108.351ZM110.422 61.22C110.017 61.22 109.713 61.1123 109.51 60.897C109.32 60.6817 109.225 60.4093 109.225 60.08C109.225 59.7507 109.32 59.4783 109.51 59.263C109.713 59.0477 110.017 58.94 110.422 58.94C110.828 58.94 111.125 59.0477 111.315 59.263C111.518 59.4783 111.619 59.7507 111.619 60.08C111.619 60.4093 111.518 60.6817 111.315 60.897C111.125 61.1123 110.828 61.22 110.422 61.22ZM122.252 73L118.433 68.269H116.761L121.416 62.854H123.335L119.117 67.737L119.25 66.768L124.361 73H122.252ZM115.26 73V59.13H117.084V73H115.26ZM130.242 73.342C129.355 73.342 128.589 73.19 127.943 72.886C127.297 72.582 126.771 72.183 126.366 71.689C125.961 71.1823 125.657 70.6187 125.454 69.998C125.264 69.3773 125.169 68.744 125.169 68.098V67.756C125.169 67.0973 125.264 66.4577 125.454 65.837C125.657 65.2163 125.961 64.659 126.366 64.165C126.771 63.6583 127.284 63.2593 127.905 62.968C128.538 62.664 129.279 62.512 130.128 62.512C131.23 62.512 132.136 62.7527 132.845 63.234C133.567 63.7027 134.099 64.3107 134.441 65.058C134.796 65.8053 134.973 66.6033 134.973 67.452V68.269H125.967V66.901H133.643L133.225 67.642C133.225 66.92 133.111 66.2993 132.883 65.78C132.655 65.248 132.313 64.8363 131.857 64.545C131.401 64.2537 130.825 64.108 130.128 64.108C129.406 64.108 128.804 64.2727 128.323 64.602C127.854 64.9313 127.5 65.381 127.259 65.951C127.031 66.521 126.917 67.1797 126.917 67.927C126.917 68.649 127.031 69.3013 127.259 69.884C127.5 70.454 127.867 70.91 128.361 71.252C128.855 71.5813 129.482 71.746 130.242 71.746C131.04 71.746 131.686 71.5687 132.18 71.214C132.687 70.8593 132.991 70.4477 133.092 69.979H134.802C134.663 70.6757 134.384 71.2773 133.966 71.784C133.548 72.2907 133.022 72.677 132.389 72.943C131.756 73.209 131.04 73.342 130.242 73.342ZM145.838 73.114C145.078 73.114 144.42 73.0063 143.862 72.791C143.318 72.5757 142.893 72.2083 142.589 71.689C142.298 71.157 142.152 70.4413 142.152 69.542V59.776H143.9V69.77C143.9 70.3147 144.046 70.739 144.337 71.043C144.641 71.3343 145.066 71.48 145.61 71.48H147.396V73.114H145.838ZM140.404 64.222V62.854H147.396V64.222H140.404ZM149.976 73V59.13H151.8V67.414H151.344C151.344 66.4133 151.471 65.552 151.724 64.83C151.99 64.0953 152.395 63.5317 152.94 63.139C153.485 62.7463 154.181 62.55 155.03 62.55H155.106C156.322 62.55 157.24 62.9553 157.861 63.766C158.482 64.564 158.792 65.7103 158.792 67.205V73H156.968V66.825C156.968 66.0017 156.734 65.362 156.265 64.906C155.809 64.45 155.214 64.222 154.479 64.222C153.668 64.222 153.016 64.4943 152.522 65.039C152.041 65.571 151.8 66.274 151.8 67.148V73H149.976ZM166.442 73.342C165.556 73.342 164.789 73.19 164.143 72.886C163.497 72.582 162.972 72.183 162.566 71.689C162.161 71.1823 161.857 70.6187 161.654 69.998C161.464 69.3773 161.369 68.744 161.369 68.098V67.756C161.369 67.0973 161.464 66.4577 161.654 65.837C161.857 65.2163 162.161 64.659 162.566 64.165C162.972 63.6583 163.485 63.2593 164.105 62.968C164.739 62.664 165.48 62.512 166.328 62.512C167.43 62.512 168.336 62.7527 169.045 63.234C169.767 63.7027 170.299 64.3107 170.641 65.058C170.996 65.8053 171.173 66.6033 171.173 67.452V68.269H162.167V66.901H169.843L169.425 67.642C169.425 66.92 169.311 66.2993 169.083 65.78C168.855 65.248 168.513 64.8363 168.057 64.545C167.601 64.2537 167.025 64.108 166.328 64.108C165.606 64.108 165.005 64.2727 164.523 64.602C164.055 64.9313 163.7 65.381 163.459 65.951C163.231 66.521 163.117 67.1797 163.117 67.927C163.117 68.649 163.231 69.3013 163.459 69.884C163.7 70.454 164.067 70.91 164.561 71.252C165.055 71.5813 165.682 71.746 166.442 71.746C167.24 71.746 167.886 71.5687 168.38 71.214C168.887 70.8593 169.191 70.4477 169.292 69.979H171.002C170.863 70.6757 170.584 71.2773 170.166 71.784C169.748 72.2907 169.223 72.677 168.589 72.943C167.956 73.209 167.24 73.342 166.442 73.342ZM182.038 73.114C181.278 73.114 180.62 73.0063 180.062 72.791C179.518 72.5757 179.093 72.2083 178.789 71.689C178.498 71.157 178.352 70.4413 178.352 69.542V59.776H180.1V69.77C180.1 70.3147 180.246 70.739 180.537 71.043C180.841 71.3343 181.266 71.48 181.81 71.48H183.596V73.114H182.038ZM176.604 64.222V62.854H183.596V64.222H176.604ZM190.415 73.342C189.528 73.342 188.762 73.19 188.116 72.886C187.47 72.582 186.944 72.183 186.539 71.689C186.134 71.1823 185.83 70.6187 185.627 69.998C185.437 69.3773 185.342 68.744 185.342 68.098V67.756C185.342 67.0973 185.437 66.4577 185.627 65.837C185.83 65.2163 186.134 64.659 186.539 64.165C186.944 63.6583 187.457 63.2593 188.078 62.968C188.711 62.664 189.452 62.512 190.301 62.512C191.403 62.512 192.309 62.7527 193.018 63.234C193.74 63.7027 194.272 64.3107 194.614 65.058C194.969 65.8053 195.146 66.6033 195.146 67.452V68.269H186.14V66.901H193.816L193.398 67.642C193.398 66.92 193.284 66.2993 193.056 65.78C192.828 65.248 192.486 64.8363 192.03 64.545C191.574 64.2537 190.998 64.108 190.301 64.108C189.579 64.108 188.977 64.2727 188.496 64.602C188.027 64.9313 187.673 65.381 187.432 65.951C187.204 66.521 187.09 67.1797 187.09 67.927C187.09 68.649 187.204 69.3013 187.432 69.884C187.673 70.454 188.04 70.91 188.534 71.252C189.028 71.5813 189.655 71.746 190.415 71.746C191.213 71.746 191.859 71.5687 192.353 71.214C192.86 70.8593 193.164 70.4477 193.265 69.979H194.975C194.836 70.6757 194.557 71.2773 194.139 71.784C193.721 72.2907 193.195 72.677 192.562 72.943C191.929 73.209 191.213 73.342 190.415 73.342ZM203.873 73V69.96H203.569V66.445C203.569 65.7483 203.385 65.2227 203.018 64.868C202.663 64.5133 202.137 64.336 201.441 64.336C201.048 64.336 200.643 64.3423 200.225 64.355C199.807 64.3677 199.408 64.3803 199.028 64.393C198.648 64.4057 198.318 64.4247 198.04 64.45V62.854C198.318 62.8287 198.61 62.8097 198.914 62.797C199.23 62.7717 199.553 62.759 199.883 62.759C200.212 62.7463 200.529 62.74 200.833 62.74C201.871 62.74 202.72 62.8667 203.379 63.12C204.037 63.3607 204.525 63.7597 204.842 64.317C205.158 64.8743 205.317 65.628 205.317 66.578V73H203.873ZM200.548 73.266C199.788 73.266 199.129 73.1393 198.572 72.886C198.027 72.62 197.603 72.24 197.299 71.746C197.007 71.252 196.862 70.6567 196.862 69.96C196.862 69.238 197.02 68.6363 197.337 68.155C197.666 67.6737 198.141 67.3127 198.762 67.072C199.382 66.8187 200.13 66.692 201.004 66.692H203.759V68.06H200.928C200.193 68.06 199.629 68.2373 199.237 68.592C198.844 68.9467 198.648 69.4027 198.648 69.96C198.648 70.5173 198.844 70.967 199.237 71.309C199.629 71.651 200.193 71.822 200.928 71.822C201.358 71.822 201.77 71.746 202.163 71.594C202.555 71.4293 202.878 71.1633 203.132 70.796C203.398 70.416 203.543 69.8967 203.569 69.238L204.063 69.96C203.999 70.682 203.822 71.29 203.531 71.784C203.252 72.2653 202.859 72.6327 202.353 72.886C201.859 73.1393 201.257 73.266 200.548 73.266ZM213.016 73.342C212.142 73.342 211.382 73.19 210.736 72.886C210.102 72.582 209.577 72.1767 209.159 71.67C208.741 71.1507 208.424 70.5807 208.209 69.96C208.006 69.3393 207.905 68.7187 207.905 68.098V67.756C207.905 67.11 208.006 66.4767 208.209 65.856C208.424 65.2353 208.741 64.678 209.159 64.184C209.589 63.6773 210.121 63.272 210.755 62.968C211.388 62.664 212.129 62.512 212.978 62.512C213.826 62.512 214.586 62.6703 215.258 62.987C215.942 63.3037 216.486 63.7533 216.892 64.336C217.31 64.906 217.544 65.5837 217.595 66.369H215.847C215.758 65.7357 215.467 65.21 214.973 64.792C214.479 64.3613 213.814 64.146 212.978 64.146C212.256 64.146 211.654 64.3107 211.173 64.64C210.691 64.9693 210.33 65.419 210.09 65.989C209.849 66.559 209.729 67.205 209.729 67.927C209.729 68.6237 209.849 69.2633 210.09 69.846C210.33 70.416 210.691 70.872 211.173 71.214C211.667 71.5433 212.281 71.708 213.016 71.708C213.586 71.708 214.08 71.6067 214.498 71.404C214.916 71.2013 215.251 70.929 215.505 70.587C215.758 70.245 215.91 69.8587 215.961 69.428H217.709C217.671 70.226 217.436 70.9163 217.006 71.499C216.588 72.0817 216.03 72.5377 215.334 72.867C214.65 73.1837 213.877 73.342 213.016 73.342ZM220.187 73V59.13H222.011V67.414H221.555C221.555 66.4133 221.682 65.552 221.935 64.83C222.201 64.0953 222.606 63.5317 223.151 63.139C223.696 62.7463 224.392 62.55 225.241 62.55H225.317C226.533 62.55 227.451 62.9553 228.072 63.766C228.693 64.564 229.003 65.7103 229.003 67.205V73H227.179V66.825C227.179 66.0017 226.945 65.362 226.476 64.906C226.02 64.45 225.425 64.222 224.69 64.222C223.879 64.222 223.227 64.4943 222.733 65.039C222.252 65.571 222.011 66.274 222.011 67.148V73H220.187ZM236.653 73.342C235.767 73.342 235 73.19 234.354 72.886C233.708 72.582 233.183 72.183 232.777 71.689C232.372 71.1823 232.068 70.6187 231.865 69.998C231.675 69.3773 231.58 68.744 231.58 68.098V67.756C231.58 67.0973 231.675 66.4577 231.865 65.837C232.068 65.2163 232.372 64.659 232.777 64.165C233.183 63.6583 233.696 63.2593 234.316 62.968C234.95 62.664 235.691 62.512 236.539 62.512C237.641 62.512 238.547 62.7527 239.256 63.234C239.978 63.7027 240.51 64.3107 240.852 65.058C241.207 65.8053 241.384 66.6033 241.384 67.452V68.269H232.378V66.901H240.054L239.636 67.642C239.636 66.92 239.522 66.2993 239.294 65.78C239.066 65.248 238.724 64.8363 238.268 64.545C237.812 64.2537 237.236 64.108 236.539 64.108C235.817 64.108 235.216 64.2727 234.734 64.602C234.266 64.9313 233.911 65.381 233.67 65.951C233.442 66.521 233.328 67.1797 233.328 67.927C233.328 68.649 233.442 69.3013 233.67 69.884C233.911 70.454 234.278 70.91 234.772 71.252C235.266 71.5813 235.893 71.746 236.653 71.746C237.451 71.746 238.097 71.5687 238.591 71.214C239.098 70.8593 239.402 70.4477 239.503 69.979H241.213C241.074 70.6757 240.795 71.2773 240.377 71.784C239.959 72.2907 239.434 72.677 238.8 72.943C238.167 73.209 237.451 73.342 236.653 73.342ZM243.974 73V62.854H245.418V67.034H245.342C245.342 65.552 245.665 64.469 246.311 63.785C246.97 63.0883 247.951 62.74 249.256 62.74H249.598V64.374H248.952C247.939 64.374 247.16 64.6463 246.615 65.191C246.07 65.723 245.798 66.4957 245.798 67.509V73H243.974ZM256.09 73V59.13H257.914V67.414H257.458C257.458 66.4133 257.585 65.552 257.838 64.83C258.104 64.0953 258.51 63.5317 259.054 63.139C259.599 62.7463 260.296 62.55 261.144 62.55H261.22C262.436 62.55 263.355 62.9553 263.975 63.766C264.596 64.564 264.906 65.7103 264.906 67.205V73H263.082V66.825C263.082 66.0017 262.848 65.362 262.379 64.906C261.923 64.45 261.328 64.222 260.593 64.222C259.783 64.222 259.13 64.4943 258.636 65.039C258.155 65.571 257.914 66.274 257.914 67.148V73H256.09ZM274.381 73V69.96H274.077V66.445C274.077 65.7483 273.893 65.2227 273.526 64.868C273.171 64.5133 272.645 64.336 271.949 64.336C271.556 64.336 271.151 64.3423 270.733 64.355C270.315 64.3677 269.916 64.3803 269.536 64.393C269.156 64.4057 268.826 64.4247 268.548 64.45V62.854C268.826 62.8287 269.118 62.8097 269.422 62.797C269.738 62.7717 270.061 62.759 270.391 62.759C270.72 62.7463 271.037 62.74 271.341 62.74C272.379 62.74 273.228 62.8667 273.887 63.12C274.545 63.3607 275.033 63.7597 275.35 64.317C275.666 64.8743 275.825 65.628 275.825 66.578V73H274.381ZM271.056 73.266C270.296 73.266 269.637 73.1393 269.08 72.886C268.535 72.62 268.111 72.24 267.807 71.746C267.515 71.252 267.37 70.6567 267.37 69.96C267.37 69.238 267.528 68.6363 267.845 68.155C268.174 67.6737 268.649 67.3127 269.27 67.072C269.89 66.8187 270.638 66.692 271.512 66.692H274.267V68.06H271.436C270.701 68.06 270.137 68.2373 269.745 68.592C269.352 68.9467 269.156 69.4027 269.156 69.96C269.156 70.5173 269.352 70.967 269.745 71.309C270.137 71.651 270.701 71.822 271.436 71.822C271.866 71.822 272.278 71.746 272.671 71.594C273.063 71.4293 273.386 71.1633 273.64 70.796C273.906 70.416 274.051 69.8967 274.077 69.238L274.571 69.96C274.507 70.682 274.33 71.29 274.039 71.784C273.76 72.2653 273.367 72.6327 272.861 72.886C272.367 73.1393 271.765 73.266 271.056 73.266ZM283.409 73.342C282.687 73.342 282.022 73.209 281.414 72.943C280.806 72.677 280.274 72.3033 279.818 71.822C279.375 71.3407 279.027 70.7833 278.773 70.15C278.533 69.5167 278.412 68.8327 278.412 68.098V67.756C278.412 67.034 278.533 66.3563 278.773 65.723C279.014 65.0897 279.35 64.5323 279.78 64.051C280.224 63.5697 280.743 63.196 281.338 62.93C281.946 62.6513 282.618 62.512 283.352 62.512C284.125 62.512 284.828 62.6767 285.461 63.006C286.095 63.3227 286.614 63.823 287.019 64.507C287.425 65.191 287.653 66.0777 287.703 67.167L286.943 65.951V59.13H288.767V73H287.323V68.497H287.855C287.805 69.6497 287.564 70.587 287.133 71.309C286.703 72.0183 286.158 72.5377 285.499 72.867C284.853 73.1837 284.157 73.342 283.409 73.342ZM283.656 71.746C284.277 71.746 284.841 71.6067 285.347 71.328C285.854 71.0493 286.259 70.6503 286.563 70.131C286.867 69.599 287.019 68.9783 287.019 68.269V67.395C287.019 66.6983 286.861 66.1093 286.544 65.628C286.24 65.134 285.829 64.7603 285.309 64.507C284.803 64.241 284.245 64.108 283.637 64.108C282.966 64.108 282.371 64.2663 281.851 64.583C281.345 64.8997 280.946 65.343 280.654 65.913C280.376 66.483 280.236 67.1543 280.236 67.927C280.236 68.6997 280.382 69.3773 280.673 69.96C280.965 70.53 281.37 70.9733 281.889 71.29C282.409 71.594 282.998 71.746 283.656 71.746ZM296.595 73V62.854H298.039V67.034H297.963C297.963 65.552 298.286 64.469 298.932 63.785C299.591 63.0883 300.573 62.74 301.877 62.74H302.219V64.374H301.573C300.56 64.374 299.781 64.6463 299.236 65.191C298.692 65.723 298.419 66.4957 298.419 67.509V73H296.595ZM308.59 73.342C307.703 73.342 306.937 73.19 306.291 72.886C305.645 72.582 305.119 72.183 304.714 71.689C304.308 71.1823 304.004 70.6187 303.802 69.998C303.612 69.3773 303.517 68.744 303.517 68.098V67.756C303.517 67.0973 303.612 66.4577 303.802 65.837C304.004 65.2163 304.308 64.659 304.714 64.165C305.119 63.6583 305.632 63.2593 306.253 62.968C306.886 62.664 307.627 62.512 308.476 62.512C309.578 62.512 310.483 62.7527 311.193 63.234C311.915 63.7027 312.447 64.3107 312.789 65.058C313.143 65.8053 313.321 66.6033 313.321 67.452V68.269H304.315V66.901H311.991L311.573 67.642C311.573 66.92 311.459 66.2993 311.231 65.78C311.003 65.248 310.661 64.8363 310.205 64.545C309.749 64.2537 309.172 64.108 308.476 64.108C307.754 64.108 307.152 64.2727 306.671 64.602C306.202 64.9313 305.847 65.381 305.607 65.951C305.379 66.521 305.265 67.1797 305.265 67.927C305.265 68.649 305.379 69.3013 305.607 69.884C305.847 70.454 306.215 70.91 306.709 71.252C307.203 71.5813 307.83 71.746 308.59 71.746C309.388 71.746 310.034 71.5687 310.528 71.214C311.034 70.8593 311.338 70.4477 311.44 69.979H313.15C313.01 70.6757 312.732 71.2773 312.314 71.784C311.896 72.2907 311.37 72.677 310.737 72.943C310.103 73.209 309.388 73.342 308.59 73.342ZM315.911 73V62.854H317.355V67.205H317.127C317.127 66.217 317.253 65.381 317.507 64.697C317.773 64.0003 318.165 63.4683 318.685 63.101C319.204 62.7337 319.863 62.55 320.661 62.55H320.737C321.535 62.55 322.193 62.7337 322.713 63.101C323.245 63.4683 323.637 64.0003 323.891 64.697C324.144 65.381 324.271 66.217 324.271 67.205H323.739C323.739 66.217 323.872 65.381 324.138 64.697C324.404 64.0003 324.796 63.4683 325.316 63.101C325.848 62.7337 326.513 62.55 327.311 62.55H327.387C328.185 62.55 328.85 62.7337 329.382 63.101C329.914 63.4683 330.306 64.0003 330.56 64.697C330.826 65.381 330.959 66.217 330.959 67.205V73H329.135V66.806C329.135 65.9827 328.932 65.3493 328.527 64.906C328.121 64.45 327.558 64.222 326.836 64.222C326.088 64.222 325.487 64.4627 325.031 64.944C324.575 65.4127 324.347 66.0713 324.347 66.92V73H322.523V66.806C322.523 65.9827 322.32 65.3493 321.915 64.906C321.509 64.45 320.946 64.222 320.224 64.222C319.476 64.222 318.875 64.4627 318.419 64.944C317.963 65.4127 317.735 66.0713 317.735 66.92V73H315.911ZM338.972 73.342C338.086 73.342 337.307 73.19 336.635 72.886C335.964 72.582 335.394 72.183 334.925 71.689C334.469 71.1823 334.121 70.6187 333.88 69.998C333.652 69.3773 333.538 68.744 333.538 68.098V67.756C333.538 67.11 333.659 66.4767 333.899 65.856C334.14 65.2227 334.495 64.659 334.963 64.165C335.432 63.6583 336.002 63.2593 336.673 62.968C337.345 62.664 338.111 62.512 338.972 62.512C339.834 62.512 340.6 62.664 341.271 62.968C341.943 63.2593 342.513 63.6583 342.981 64.165C343.45 64.659 343.805 65.2227 344.045 65.856C344.286 66.4767 344.406 67.11 344.406 67.756V68.098C344.406 68.744 344.286 69.3773 344.045 69.998C343.817 70.6187 343.469 71.1823 343 71.689C342.544 72.183 341.981 72.582 341.309 72.886C340.638 73.19 339.859 73.342 338.972 73.342ZM338.972 71.708C339.732 71.708 340.378 71.5433 340.91 71.214C341.455 70.872 341.867 70.416 342.145 69.846C342.437 69.276 342.582 68.6363 342.582 67.927C342.582 67.205 342.437 66.559 342.145 65.989C341.854 65.419 341.436 64.9693 340.891 64.64C340.359 64.3107 339.72 64.146 338.972 64.146C338.238 64.146 337.598 64.3107 337.053 64.64C336.509 64.9693 336.091 65.419 335.799 65.989C335.508 66.559 335.362 67.205 335.362 67.927C335.362 68.6363 335.502 69.276 335.78 69.846C336.072 70.416 336.483 70.872 337.015 71.214C337.56 71.5433 338.212 71.708 338.972 71.708ZM349.119 73L345.661 62.854H347.561L350.943 73H349.119ZM349.575 73V71.556H351.779V73H349.575ZM350.449 73L353.394 62.854H355.18L352.178 73H350.449ZM361.693 73.342C360.807 73.342 360.04 73.19 359.394 72.886C358.748 72.582 358.223 72.183 357.817 71.689C357.412 71.1823 357.108 70.6187 356.905 69.998C356.715 69.3773 356.62 68.744 356.62 68.098V67.756C356.62 67.0973 356.715 66.4577 356.905 65.837C357.108 65.2163 357.412 64.659 357.817 64.165C358.223 63.6583 358.736 63.2593 359.356 62.968C359.99 62.664 360.731 62.512 361.579 62.512C362.681 62.512 363.587 62.7527 364.296 63.234C365.018 63.7027 365.55 64.3107 365.892 65.058C366.247 65.8053 366.424 66.6033 366.424 67.452V68.269H357.418V66.901H365.094L364.676 67.642C364.676 66.92 364.562 66.2993 364.334 65.78C364.106 65.248 363.764 64.8363 363.308 64.545C362.852 64.2537 362.276 64.108 361.579 64.108C360.857 64.108 360.256 64.2727 359.774 64.602C359.306 64.9313 358.951 65.381 358.71 65.951C358.482 66.521 358.368 67.1797 358.368 67.927C358.368 68.649 358.482 69.3013 358.71 69.884C358.951 70.454 359.318 70.91 359.812 71.252C360.306 71.5813 360.933 71.746 361.693 71.746C362.491 71.746 363.137 71.5687 363.631 71.214C364.138 70.8593 364.442 70.4477 364.543 69.979H366.253C366.114 70.6757 365.835 71.2773 365.417 71.784C364.999 72.2907 364.474 72.677 363.84 72.943C363.207 73.209 362.491 73.342 361.693 73.342ZM373.251 73.342C372.529 73.342 371.864 73.209 371.256 72.943C370.648 72.677 370.116 72.3033 369.66 71.822C369.217 71.3407 368.868 70.7833 368.615 70.15C368.374 69.5167 368.254 68.8327 368.254 68.098V67.756C368.254 67.034 368.374 66.3563 368.615 65.723C368.856 65.0897 369.191 64.5323 369.622 64.051C370.065 63.5697 370.585 63.196 371.18 62.93C371.788 62.6513 372.459 62.512 373.194 62.512C373.967 62.512 374.67 62.6767 375.303 63.006C375.936 63.3227 376.456 63.823 376.861 64.507C377.266 65.191 377.494 66.0777 377.545 67.167L376.785 65.951V59.13H378.609V73H377.165V68.497H377.697C377.646 69.6497 377.406 70.587 376.975 71.309C376.544 72.0183 376 72.5377 375.341 72.867C374.695 73.1837 373.998 73.342 373.251 73.342ZM373.498 71.746C374.119 71.746 374.682 71.6067 375.189 71.328C375.696 71.0493 376.101 70.6503 376.405 70.131C376.709 69.599 376.861 68.9783 376.861 68.269V67.395C376.861 66.6983 376.703 66.1093 376.386 65.628C376.082 65.134 375.67 64.7603 375.151 64.507C374.644 64.241 374.087 64.108 373.479 64.108C372.808 64.108 372.212 64.2663 371.693 64.583C371.186 64.8997 370.787 65.343 370.496 65.913C370.217 66.483 370.078 67.1543 370.078 67.927C370.078 68.6997 370.224 69.3773 370.515 69.96C370.806 70.53 371.212 70.9733 371.731 71.29C372.25 71.594 372.839 71.746 373.498 71.746ZM385.753 76.952V75.318H387.216C387.647 75.318 388.008 75.261 388.299 75.147C388.603 75.0457 388.85 74.8683 389.04 74.615C389.243 74.3617 389.407 74.026 389.534 73.608L392.726 62.854H394.512L391.13 74.083C390.927 74.7543 390.642 75.299 390.275 75.717C389.908 76.1477 389.458 76.458 388.926 76.648C388.407 76.8507 387.799 76.952 387.102 76.952H385.753ZM388.85 72.772V71.252H391.054V72.772H388.85ZM388.66 72.772L385.031 62.854H386.893L390.37 72.772H388.66ZM401.316 73.342C400.429 73.342 399.65 73.19 398.979 72.886C398.308 72.582 397.738 72.183 397.269 71.689C396.813 71.1823 396.465 70.6187 396.224 69.998C395.996 69.3773 395.882 68.744 395.882 68.098V67.756C395.882 67.11 396.002 66.4767 396.243 65.856C396.484 65.2227 396.838 64.659 397.307 64.165C397.776 63.6583 398.346 63.2593 399.017 62.968C399.688 62.664 400.455 62.512 401.316 62.512C402.177 62.512 402.944 62.664 403.615 62.968C404.286 63.2593 404.856 63.6583 405.325 64.165C405.794 64.659 406.148 65.2227 406.389 65.856C406.63 66.4767 406.75 67.11 406.75 67.756V68.098C406.75 68.744 406.63 69.3773 406.389 69.998C406.161 70.6187 405.813 71.1823 405.344 71.689C404.888 72.183 404.324 72.582 403.653 72.886C402.982 73.19 402.203 73.342 401.316 73.342ZM401.316 71.708C402.076 71.708 402.722 71.5433 403.254 71.214C403.799 70.872 404.21 70.416 404.489 69.846C404.78 69.276 404.926 68.6363 404.926 67.927C404.926 67.205 404.78 66.559 404.489 65.989C404.198 65.419 403.78 64.9693 403.235 64.64C402.703 64.3107 402.063 64.146 401.316 64.146C400.581 64.146 399.942 64.3107 399.397 64.64C398.852 64.9693 398.434 65.419 398.143 65.989C397.852 66.559 397.706 67.205 397.706 67.927C397.706 68.6363 397.845 69.276 398.124 69.846C398.415 70.416 398.827 70.872 399.359 71.214C399.904 71.5433 400.556 71.708 401.316 71.708ZM412.997 73.304C411.794 73.304 410.869 72.9113 410.223 72.126C409.577 71.3407 409.254 70.207 409.254 68.725V62.835H411.078V69.086C411.078 69.884 411.293 70.511 411.724 70.967C412.155 71.4103 412.737 71.632 413.472 71.632C414.232 71.632 414.853 71.3913 415.334 70.91C415.815 70.416 416.056 69.7447 416.056 68.896V62.835H417.88V73H416.436V68.649H416.664C416.664 69.6497 416.531 70.4983 416.265 71.195C415.999 71.879 415.6 72.4047 415.068 72.772C414.549 73.1267 413.884 73.304 413.073 73.304H412.997ZM426.002 73V62.341C426.002 61.2137 426.299 60.384 426.895 59.852C427.49 59.32 428.364 59.054 429.517 59.054H430.771V60.574H429.213C428.744 60.574 428.383 60.707 428.13 60.973C427.876 61.2263 427.75 61.581 427.75 62.037V73H426.002ZM424.596 64.336V62.968H430.961V64.336H424.596ZM432.898 73V62.854H434.342V67.034H434.266C434.266 65.552 434.589 64.469 435.235 63.785C435.894 63.0883 436.875 62.74 438.18 62.74H438.522V64.374H437.876C436.863 64.374 436.084 64.6463 435.539 65.191C434.994 65.723 434.722 66.4957 434.722 67.509V73H432.898ZM445.254 73.342C444.367 73.342 443.588 73.19 442.917 72.886C442.245 72.582 441.675 72.183 441.207 71.689C440.751 71.1823 440.402 70.6187 440.162 69.998C439.934 69.3773 439.82 68.744 439.82 68.098V67.756C439.82 67.11 439.94 66.4767 440.181 65.856C440.421 65.2227 440.776 64.659 441.245 64.165C441.713 63.6583 442.283 63.2593 442.955 62.968C443.626 62.664 444.392 62.512 445.254 62.512C446.115 62.512 446.881 62.664 447.553 62.968C448.224 63.2593 448.794 63.6583 449.263 64.165C449.731 64.659 450.086 65.2227 450.327 65.856C450.567 66.4767 450.688 67.11 450.688 67.756V68.098C450.688 68.744 450.567 69.3773 450.327 69.998C450.099 70.6187 449.75 71.1823 449.282 71.689C448.826 72.183 448.262 72.582 447.591 72.886C446.919 73.19 446.14 73.342 445.254 73.342ZM445.254 71.708C446.014 71.708 446.66 71.5433 447.192 71.214C447.736 70.872 448.148 70.416 448.427 69.846C448.718 69.276 448.864 68.6363 448.864 67.927C448.864 67.205 448.718 66.559 448.427 65.989C448.135 65.419 447.717 64.9693 447.173 64.64C446.641 64.3107 446.001 64.146 445.254 64.146C444.519 64.146 443.879 64.3107 443.335 64.64C442.79 64.9693 442.372 65.419 442.081 65.989C441.789 66.559 441.644 67.205 441.644 67.927C441.644 68.6363 441.783 69.276 442.062 69.846C442.353 70.416 442.765 70.872 443.297 71.214C443.841 71.5433 444.494 71.708 445.254 71.708ZM453.419 73V62.854H454.863V67.205H454.635C454.635 66.217 454.762 65.381 455.015 64.697C455.281 64.0003 455.674 63.4683 456.193 63.101C456.713 62.7337 457.371 62.55 458.169 62.55H458.245C459.043 62.55 459.702 62.7337 460.221 63.101C460.753 63.4683 461.146 64.0003 461.399 64.697C461.653 65.381 461.779 66.217 461.779 67.205H461.247C461.247 66.217 461.38 65.381 461.646 64.697C461.912 64.0003 462.305 63.4683 462.824 63.101C463.356 62.7337 464.021 62.55 464.819 62.55H464.895C465.693 62.55 466.358 62.7337 466.89 63.101C467.422 63.4683 467.815 64.0003 468.068 64.697C468.334 65.381 468.467 66.217 468.467 67.205V73H466.643V66.806C466.643 65.9827 466.441 65.3493 466.035 64.906C465.63 64.45 465.066 64.222 464.344 64.222C463.597 64.222 462.995 64.4627 462.539 64.944C462.083 65.4127 461.855 66.0713 461.855 66.92V73H460.031V66.806C460.031 65.9827 459.829 65.3493 459.423 64.906C459.018 64.45 458.454 64.222 457.732 64.222C456.985 64.222 456.383 64.4627 455.927 64.944C455.471 65.4127 455.243 66.0713 455.243 66.92V73H453.419ZM480.082 73.114C479.322 73.114 478.664 73.0063 478.106 72.791C477.562 72.5757 477.137 72.2083 476.833 71.689C476.542 71.157 476.396 70.4413 476.396 69.542V59.776H478.144V69.77C478.144 70.3147 478.29 70.739 478.581 71.043C478.885 71.3343 479.31 71.48 479.854 71.48H481.64V73.114H480.082ZM474.648 64.222V62.854H481.64V64.222H474.648ZM484.22 73V59.13H486.044V67.414H485.588C485.588 66.4133 485.715 65.552 485.968 64.83C486.234 64.0953 486.64 63.5317 487.184 63.139C487.729 62.7463 488.426 62.55 489.274 62.55H489.35C490.566 62.55 491.485 62.9553 492.105 63.766C492.726 64.564 493.036 65.7103 493.036 67.205V73H491.212V66.825C491.212 66.0017 490.978 65.362 490.509 64.906C490.053 64.45 489.458 64.222 488.723 64.222C487.913 64.222 487.26 64.4943 486.766 65.039C486.285 65.571 486.044 66.274 486.044 67.148V73H484.22ZM500.686 73.342C499.8 73.342 499.033 73.19 498.387 72.886C497.741 72.582 497.216 72.183 496.81 71.689C496.405 71.1823 496.101 70.6187 495.898 69.998C495.708 69.3773 495.613 68.744 495.613 68.098V67.756C495.613 67.0973 495.708 66.4577 495.898 65.837C496.101 65.2163 496.405 64.659 496.81 64.165C497.216 63.6583 497.729 63.2593 498.349 62.968C498.983 62.664 499.724 62.512 500.572 62.512C501.674 62.512 502.58 62.7527 503.289 63.234C504.011 63.7027 504.543 64.3107 504.885 65.058C505.24 65.8053 505.417 66.6033 505.417 67.452V68.269H496.411V66.901H504.087L503.669 67.642C503.669 66.92 503.555 66.2993 503.327 65.78C503.099 65.248 502.757 64.8363 502.301 64.545C501.845 64.2537 501.269 64.108 500.572 64.108C499.85 64.108 499.249 64.2727 498.767 64.602C498.299 64.9313 497.944 65.381 497.703 65.951C497.475 66.521 497.361 67.1797 497.361 67.927C497.361 68.649 497.475 69.3013 497.703 69.884C497.944 70.454 498.311 70.91 498.805 71.252C499.299 71.5813 499.926 71.746 500.686 71.746C501.484 71.746 502.13 71.5687 502.624 71.214C503.131 70.8593 503.435 70.4477 503.536 69.979H505.246C505.107 70.6757 504.828 71.2773 504.41 71.784C503.992 72.2907 503.467 72.677 502.833 72.943C502.2 73.209 501.484 73.342 500.686 73.342ZM512.331 76.8V62.854H513.775V67.243L513.433 67.205C513.496 66.1157 513.724 65.229 514.117 64.545C514.522 63.8483 515.048 63.3353 515.694 63.006C516.34 62.6767 517.043 62.512 517.803 62.512C518.537 62.512 519.202 62.6513 519.798 62.93C520.406 63.2087 520.925 63.5887 521.356 64.07C521.786 64.5513 522.116 65.1087 522.344 65.742C522.572 66.3753 522.686 67.0467 522.686 67.756V68.098C522.686 68.8073 522.565 69.4787 522.325 70.112C522.084 70.7453 521.742 71.3027 521.299 71.784C520.868 72.2653 520.349 72.6453 519.741 72.924C519.145 73.2027 518.487 73.342 517.765 73.342C517.043 73.342 516.352 73.1837 515.694 72.867C515.035 72.5503 514.49 72.0373 514.06 71.328C513.629 70.6187 513.382 69.6877 513.319 68.535L514.155 70.055V76.8H512.331ZM517.48 71.746C518.164 71.746 518.759 71.5877 519.266 71.271C519.772 70.9417 520.165 70.492 520.444 69.922C520.722 69.3393 520.862 68.6743 520.862 67.927C520.862 67.167 520.722 66.502 520.444 65.932C520.165 65.362 519.772 64.9187 519.266 64.602C518.759 64.2727 518.164 64.108 517.48 64.108C516.872 64.108 516.308 64.2473 515.789 64.526C515.269 64.792 514.851 65.1847 514.535 65.704C514.231 66.2107 514.079 66.825 514.079 67.547V68.421C514.079 69.1177 514.237 69.713 514.554 70.207C514.87 70.701 515.288 71.081 515.808 71.347C516.327 71.613 516.884 71.746 517.48 71.746ZM530.104 73.342C529.217 73.342 528.438 73.19 527.767 72.886C527.096 72.582 526.526 72.183 526.057 71.689C525.601 71.1823 525.253 70.6187 525.012 69.998C524.784 69.3773 524.67 68.744 524.67 68.098V67.756C524.67 67.11 524.79 66.4767 525.031 65.856C525.272 65.2227 525.626 64.659 526.095 64.165C526.564 63.6583 527.134 63.2593 527.805 62.968C528.476 62.664 529.243 62.512 530.104 62.512C530.965 62.512 531.732 62.664 532.403 62.968C533.074 63.2593 533.644 63.6583 534.113 64.165C534.582 64.659 534.936 65.2227 535.177 65.856C535.418 66.4767 535.538 67.11 535.538 67.756V68.098C535.538 68.744 535.418 69.3773 535.177 69.998C534.949 70.6187 534.601 71.1823 534.132 71.689C533.676 72.183 533.112 72.582 532.441 72.886C531.77 73.19 530.991 73.342 530.104 73.342ZM530.104 71.708C530.864 71.708 531.51 71.5433 532.042 71.214C532.587 70.872 532.998 70.416 533.277 69.846C533.568 69.276 533.714 68.6363 533.714 67.927C533.714 67.205 533.568 66.559 533.277 65.989C532.986 65.419 532.568 64.9693 532.023 64.64C531.491 64.3107 530.851 64.146 530.104 64.146C529.369 64.146 528.73 64.3107 528.185 64.64C527.64 64.9693 527.222 65.419 526.931 65.989C526.64 66.559 526.494 67.205 526.494 67.927C526.494 68.6363 526.633 69.276 526.912 69.846C527.203 70.416 527.615 70.872 528.147 71.214C528.692 71.5433 529.344 71.708 530.104 71.708ZM538.384 73V59.13H540.208V73H538.384ZM536.978 60.574V59.13H540.208V60.574H536.978ZM543.82 73V59.13H545.644V73H543.82ZM542.414 60.574V59.13H545.644V60.574H542.414ZM556.791 73.304C555.461 73.304 554.429 73.019 553.694 72.449C552.972 71.879 552.599 71.1 552.573 70.112H554.283C554.309 70.5047 554.505 70.8783 554.872 71.233C555.252 71.575 555.892 71.746 556.791 71.746C557.602 71.746 558.223 71.5877 558.653 71.271C559.084 70.9417 559.299 70.5427 559.299 70.074C559.299 69.656 559.141 69.333 558.824 69.105C558.508 68.8643 557.995 68.706 557.285 68.63L556.183 68.516C555.221 68.4147 554.435 68.1297 553.827 67.661C553.219 67.1797 552.915 66.5083 552.915 65.647C552.915 65.001 553.08 64.45 553.409 63.994C553.739 63.5253 554.195 63.1707 554.777 62.93C555.36 62.6767 556.031 62.55 556.791 62.55C557.931 62.55 558.856 62.8033 559.565 63.31C560.275 63.8167 560.642 64.5703 560.667 65.571H558.957C558.945 65.1657 558.755 64.8237 558.387 64.545C558.033 64.2537 557.501 64.108 556.791 64.108C556.082 64.108 555.544 64.2537 555.176 64.545C554.809 64.8363 554.625 65.2037 554.625 65.647C554.625 66.027 554.752 66.331 555.005 66.559C555.271 66.787 555.702 66.9327 556.297 66.996L557.399 67.11C558.489 67.224 559.363 67.528 560.021 68.022C560.68 68.5033 561.009 69.1873 561.009 70.074C561.009 70.7073 560.826 71.271 560.458 71.765C560.104 72.2463 559.61 72.6263 558.976 72.905C558.343 73.171 557.615 73.304 556.791 73.304ZM562.895 76.952V75.318H564.358C564.788 75.318 565.149 75.261 565.441 75.147C565.745 75.0457 565.992 74.8683 566.182 74.615C566.384 74.3617 566.549 74.026 566.676 73.608L569.868 62.854H571.654L568.272 74.083C568.069 74.7543 567.784 75.299 567.417 75.717C567.049 76.1477 566.6 76.458 566.068 76.648C565.548 76.8507 564.94 76.952 564.244 76.952H562.895ZM565.992 72.772V71.252H568.196V72.772H565.992ZM565.802 72.772L562.173 62.854H564.035L567.512 72.772H565.802ZM577.22 73.304C575.89 73.304 574.858 73.019 574.123 72.449C573.401 71.879 573.027 71.1 573.002 70.112H574.712C574.737 70.5047 574.934 70.8783 575.301 71.233C575.681 71.575 576.321 71.746 577.22 71.746C578.031 71.746 578.651 71.5877 579.082 71.271C579.513 70.9417 579.728 70.5427 579.728 70.074C579.728 69.656 579.57 69.333 579.253 69.105C578.936 68.8643 578.423 68.706 577.714 68.63L576.612 68.516C575.649 68.4147 574.864 68.1297 574.256 67.661C573.648 67.1797 573.344 66.5083 573.344 65.647C573.344 65.001 573.509 64.45 573.838 63.994C574.167 63.5253 574.623 63.1707 575.206 62.93C575.789 62.6767 576.46 62.55 577.22 62.55C578.36 62.55 579.285 62.8033 579.994 63.31C580.703 63.8167 581.071 64.5703 581.096 65.571H579.386C579.373 65.1657 579.183 64.8237 578.816 64.545C578.461 64.2537 577.929 64.108 577.22 64.108C576.511 64.108 575.972 64.2537 575.605 64.545C575.238 64.8363 575.054 65.2037 575.054 65.647C575.054 66.027 575.181 66.331 575.434 66.559C575.7 66.787 576.131 66.9327 576.726 66.996L577.828 67.11C578.917 67.224 579.791 67.528 580.45 68.022C581.109 68.5033 581.438 69.1873 581.438 70.074C581.438 70.7073 581.254 71.271 580.887 71.765C580.532 72.2463 580.038 72.6263 579.405 72.905C578.772 73.171 578.043 73.304 577.22 73.304ZM588.033 73.114C587.273 73.114 586.615 73.0063 586.057 72.791C585.513 72.5757 585.088 72.2083 584.784 71.689C584.493 71.157 584.347 70.4413 584.347 69.542V59.776H586.095V69.77C586.095 70.3147 586.241 70.739 586.532 71.043C586.836 71.3343 587.261 71.48 587.805 71.48H589.591V73.114H588.033ZM582.599 64.222V62.854H589.591V64.222H582.599ZM596.41 73.342C595.523 73.342 594.757 73.19 594.111 72.886C593.465 72.582 592.939 72.183 592.534 71.689C592.129 71.1823 591.825 70.6187 591.622 69.998C591.432 69.3773 591.337 68.744 591.337 68.098V67.756C591.337 67.0973 591.432 66.4577 591.622 65.837C591.825 65.2163 592.129 64.659 592.534 64.165C592.939 63.6583 593.452 63.2593 594.073 62.968C594.706 62.664 595.447 62.512 596.296 62.512C597.398 62.512 598.304 62.7527 599.013 63.234C599.735 63.7027 600.267 64.3107 600.609 65.058C600.964 65.8053 601.141 66.6033 601.141 67.452V68.269H592.135V66.901H599.811L599.393 67.642C599.393 66.92 599.279 66.2993 599.051 65.78C598.823 65.248 598.481 64.8363 598.025 64.545C597.569 64.2537 596.993 64.108 596.296 64.108C595.574 64.108 594.972 64.2727 594.491 64.602C594.022 64.9313 593.668 65.381 593.427 65.951C593.199 66.521 593.085 67.1797 593.085 67.927C593.085 68.649 593.199 69.3013 593.427 69.884C593.668 70.454 594.035 70.91 594.529 71.252C595.023 71.5813 595.65 71.746 596.41 71.746C597.208 71.746 597.854 71.5687 598.348 71.214C598.855 70.8593 599.159 70.4477 599.26 69.979H600.97C600.831 70.6757 600.552 71.2773 600.134 71.784C599.716 72.2907 599.19 72.677 598.557 72.943C597.924 73.209 597.208 73.342 596.41 73.342ZM603.731 73V62.854H605.175V67.205H604.947C604.947 66.217 605.074 65.381 605.327 64.697C605.593 64.0003 605.986 63.4683 606.505 63.101C607.024 62.7337 607.683 62.55 608.481 62.55H608.557C609.355 62.55 610.014 62.7337 610.533 63.101C611.065 63.4683 611.458 64.0003 611.711 64.697C611.964 65.381 612.091 66.217 612.091 67.205H611.559C611.559 66.217 611.692 65.381 611.958 64.697C612.224 64.0003 612.617 63.4683 613.136 63.101C613.668 62.7337 614.333 62.55 615.131 62.55H615.207C616.005 62.55 616.67 62.7337 617.202 63.101C617.734 63.4683 618.127 64.0003 618.38 64.697C618.646 65.381 618.779 66.217 618.779 67.205V73H616.955V66.806C616.955 65.9827 616.752 65.3493 616.347 64.906C615.942 64.45 615.378 64.222 614.656 64.222C613.909 64.222 613.307 64.4627 612.851 64.944C612.395 65.4127 612.167 66.0713 612.167 66.92V73H610.343V66.806C610.343 65.9827 610.14 65.3493 609.735 64.906C609.33 64.45 608.766 64.222 608.044 64.222C607.297 64.222 606.695 64.4627 606.239 64.944C605.783 65.4127 605.555 66.0713 605.555 66.92V73H603.731ZM626.081 73V70.682H628.285V73H626.081ZM633.163 68.174V66.54H636.26C636.918 66.54 637.463 66.4133 637.894 66.16C638.324 65.894 638.647 65.5393 638.863 65.096C639.091 64.6527 639.205 64.1587 639.205 63.614C639.205 63.0567 639.091 62.5563 638.863 62.113C638.647 61.6697 638.324 61.3213 637.894 61.068C637.463 60.8147 636.918 60.688 636.26 60.688H633.163V59.054H635.918C637.058 59.054 638.008 59.2377 638.768 59.605C639.54 59.9597 640.123 60.4663 640.516 61.125C640.908 61.7837 641.105 62.5627 641.105 63.462V63.766C641.105 64.6527 640.908 65.4317 640.516 66.103C640.123 66.7617 639.54 67.2747 638.768 67.642C638.008 67.9967 637.058 68.174 635.918 68.174H633.163ZM631.681 73V59.054H633.543V73H631.681ZM643.682 73V59.13H645.506V73H643.682ZM642.276 60.574V59.13H645.506V60.574H642.276ZM653.317 73.342C652.431 73.342 651.664 73.19 651.018 72.886C650.372 72.582 649.847 72.183 649.441 71.689C649.036 71.1823 648.732 70.6187 648.529 69.998C648.339 69.3773 648.244 68.744 648.244 68.098V67.756C648.244 67.0973 648.339 66.4577 648.529 65.837C648.732 65.2163 649.036 64.659 649.441 64.165C649.847 63.6583 650.36 63.2593 650.98 62.968C651.614 62.664 652.355 62.512 653.203 62.512C654.305 62.512 655.211 62.7527 655.92 63.234C656.642 63.7027 657.174 64.3107 657.516 65.058C657.871 65.8053 658.048 66.6033 658.048 67.452V68.269H649.042V66.901H656.718L656.3 67.642C656.3 66.92 656.186 66.2993 655.958 65.78C655.73 65.248 655.388 64.8363 654.932 64.545C654.476 64.2537 653.9 64.108 653.203 64.108C652.481 64.108 651.88 64.2727 651.398 64.602C650.93 64.9313 650.575 65.381 650.334 65.951C650.106 66.521 649.992 67.1797 649.992 67.927C649.992 68.649 650.106 69.3013 650.334 69.884C650.575 70.454 650.942 70.91 651.436 71.252C651.93 71.5813 652.557 71.746 653.317 71.746C654.115 71.746 654.761 71.5687 655.255 71.214C655.762 70.8593 656.066 70.4477 656.167 69.979H657.877C657.738 70.6757 657.459 71.2773 657.041 71.784C656.623 72.2907 656.098 72.677 655.464 72.943C654.831 73.209 654.115 73.342 653.317 73.342ZM666.775 73V69.96H666.471V66.445C666.471 65.7483 666.287 65.2227 665.92 64.868C665.565 64.5133 665.04 64.336 664.343 64.336C663.95 64.336 663.545 64.3423 663.127 64.355C662.709 64.3677 662.31 64.3803 661.93 64.393C661.55 64.4057 661.221 64.4247 660.942 64.45V62.854C661.221 62.8287 661.512 62.8097 661.816 62.797C662.133 62.7717 662.456 62.759 662.785 62.759C663.114 62.7463 663.431 62.74 663.735 62.74C664.774 62.74 665.622 62.8667 666.281 63.12C666.94 63.3607 667.427 63.7597 667.744 64.317C668.061 64.8743 668.219 65.628 668.219 66.578V73H666.775ZM663.45 73.266C662.69 73.266 662.031 73.1393 661.474 72.886C660.929 72.62 660.505 72.24 660.201 71.746C659.91 71.252 659.764 70.6567 659.764 69.96C659.764 69.238 659.922 68.6363 660.239 68.155C660.568 67.6737 661.043 67.3127 661.664 67.072C662.285 66.8187 663.032 66.692 663.906 66.692H666.661V68.06H663.83C663.095 68.06 662.532 68.2373 662.139 68.592C661.746 68.9467 661.55 69.4027 661.55 69.96C661.55 70.5173 661.746 70.967 662.139 71.309C662.532 71.651 663.095 71.822 663.83 71.822C664.261 71.822 664.672 71.746 665.065 71.594C665.458 71.4293 665.781 71.1633 666.034 70.796C666.3 70.416 666.446 69.8967 666.471 69.238L666.965 69.96C666.902 70.682 666.724 71.29 666.433 71.784C666.154 72.2653 665.762 72.6327 665.255 72.886C664.761 73.1393 664.159 73.266 663.45 73.266ZM674.892 73.304C673.562 73.304 672.53 73.019 671.795 72.449C671.073 71.879 670.699 71.1 670.674 70.112H672.384C672.409 70.5047 672.606 70.8783 672.973 71.233C673.353 71.575 673.993 71.746 674.892 71.746C675.703 71.746 676.323 71.5877 676.754 71.271C677.185 70.9417 677.4 70.5427 677.4 70.074C677.4 69.656 677.242 69.333 676.925 69.105C676.608 68.8643 676.095 68.706 675.386 68.63L674.284 68.516C673.321 68.4147 672.536 68.1297 671.928 67.661C671.32 67.1797 671.016 66.5083 671.016 65.647C671.016 65.001 671.181 64.45 671.51 63.994C671.839 63.5253 672.295 63.1707 672.878 62.93C673.461 62.6767 674.132 62.55 674.892 62.55C676.032 62.55 676.957 62.8033 677.666 63.31C678.375 63.8167 678.743 64.5703 678.768 65.571H677.058C677.045 65.1657 676.855 64.8237 676.488 64.545C676.133 64.2537 675.601 64.108 674.892 64.108C674.183 64.108 673.644 64.2537 673.277 64.545C672.91 64.8363 672.726 65.2037 672.726 65.647C672.726 66.027 672.853 66.331 673.106 66.559C673.372 66.787 673.803 66.9327 674.398 66.996L675.5 67.11C676.589 67.224 677.463 67.528 678.122 68.022C678.781 68.5033 679.11 69.1873 679.11 70.074C679.11 70.7073 678.926 71.271 678.559 71.765C678.204 72.2463 677.71 72.6263 677.077 72.905C676.444 73.171 675.715 73.304 674.892 73.304ZM686.066 73.342C685.18 73.342 684.413 73.19 683.767 72.886C683.121 72.582 682.596 72.183 682.19 71.689C681.785 71.1823 681.481 70.6187 681.278 69.998C681.088 69.3773 680.993 68.744 680.993 68.098V67.756C680.993 67.0973 681.088 66.4577 681.278 65.837C681.481 65.2163 681.785 64.659 682.19 64.165C682.596 63.6583 683.109 63.2593 683.729 62.968C684.363 62.664 685.104 62.512 685.952 62.512C687.054 62.512 687.96 62.7527 688.669 63.234C689.391 63.7027 689.923 64.3107 690.265 65.058C690.62 65.8053 690.797 66.6033 690.797 67.452V68.269H681.791V66.901H689.467L689.049 67.642C689.049 66.92 688.935 66.2993 688.707 65.78C688.479 65.248 688.137 64.8363 687.681 64.545C687.225 64.2537 686.649 64.108 685.952 64.108C685.23 64.108 684.629 64.2727 684.147 64.602C683.679 64.9313 683.324 65.381 683.083 65.951C682.855 66.521 682.741 67.1797 682.741 67.927C682.741 68.649 682.855 69.3013 683.083 69.884C683.324 70.454 683.691 70.91 684.185 71.252C684.679 71.5813 685.306 71.746 686.066 71.746C686.864 71.746 687.51 71.5687 688.004 71.214C688.511 70.8593 688.815 70.4477 688.916 69.979H690.626C690.487 70.6757 690.208 71.2773 689.79 71.784C689.372 72.2907 688.847 72.677 688.213 72.943C687.58 73.209 686.864 73.342 686.066 73.342ZM277.025 97V84.422H278.887V97H277.025ZM272.807 84.802V83.13H283.105V84.802H272.807ZM284.767 97V86.854H286.211V91.034H286.135C286.135 89.552 286.458 88.469 287.104 87.785C287.762 87.0883 288.744 86.74 290.049 86.74H290.391V88.374H289.745C288.731 88.374 287.952 88.6463 287.408 89.191C286.863 89.723 286.591 90.4957 286.591 91.509V97H284.767ZM292.21 100.952V99.318H293.673C294.103 99.318 294.464 99.261 294.756 99.147C295.06 99.0457 295.307 98.8683 295.497 98.615C295.699 98.3617 295.864 98.026 295.991 97.608L299.183 86.854H300.969L297.587 98.083C297.384 98.7543 297.099 99.299 296.732 99.717C296.364 100.148 295.915 100.458 295.383 100.648C294.863 100.851 294.255 100.952 293.559 100.952H292.21ZM295.307 96.772V95.252H297.511V96.772H295.307ZM295.117 96.772L291.488 86.854H293.35L296.827 96.772H295.117ZM313.744 97V93.96H313.44V90.445C313.44 89.7483 313.257 89.2227 312.889 88.868C312.535 88.5133 312.009 88.336 311.312 88.336C310.92 88.336 310.514 88.3423 310.096 88.355C309.678 88.3677 309.279 88.3803 308.899 88.393C308.519 88.4057 308.19 88.4247 307.911 88.45V86.854C308.19 86.8287 308.481 86.8097 308.785 86.797C309.102 86.7717 309.425 86.759 309.754 86.759C310.084 86.7463 310.4 86.74 310.704 86.74C311.743 86.74 312.592 86.8667 313.25 87.12C313.909 87.3607 314.397 87.7597 314.713 88.317C315.03 88.8743 315.188 89.628 315.188 90.578V97H313.744ZM310.419 97.266C309.659 97.266 309.001 97.1393 308.443 96.886C307.899 96.62 307.474 96.24 307.17 95.746C306.879 95.252 306.733 94.6567 306.733 93.96C306.733 93.238 306.892 92.6363 307.208 92.155C307.538 91.6737 308.013 91.3127 308.633 91.072C309.254 90.8187 310.001 90.692 310.875 90.692H313.63V92.06H310.799C310.065 92.06 309.501 92.2373 309.108 92.592C308.716 92.9467 308.519 93.4027 308.519 93.96C308.519 94.5173 308.716 94.967 309.108 95.309C309.501 95.651 310.065 95.822 310.799 95.822C311.23 95.822 311.642 95.746 312.034 95.594C312.427 95.4293 312.75 95.1633 313.003 94.796C313.269 94.416 313.415 93.8967 313.44 93.238L313.934 93.96C313.871 94.682 313.694 95.29 313.402 95.784C313.124 96.2653 312.731 96.6327 312.224 96.886C311.73 97.1393 311.129 97.266 310.419 97.266ZM322.374 100.952C321.905 100.952 321.43 100.933 320.949 100.895C320.48 100.857 320.031 100.806 319.6 100.743V99.204C320.056 99.2673 320.531 99.318 321.025 99.356C321.532 99.4067 322.007 99.432 322.45 99.432C323.375 99.432 324.109 99.3053 324.654 99.052C325.211 98.8113 325.61 98.425 325.851 97.893C326.104 97.3737 326.231 96.7023 326.231 95.879V93.941L326.839 92.497C326.801 93.523 326.586 94.378 326.193 95.062C325.8 95.7333 325.287 96.24 324.654 96.582C324.033 96.9113 323.343 97.076 322.583 97.076C321.874 97.076 321.221 96.943 320.626 96.677C320.043 96.3983 319.537 96.0183 319.106 95.537C318.688 95.0557 318.359 94.5047 318.118 93.884C317.89 93.2507 317.776 92.5857 317.776 91.889V91.547C317.776 90.8377 317.896 90.179 318.137 89.571C318.378 88.9503 318.713 88.412 319.144 87.956C319.575 87.5 320.088 87.1453 320.683 86.892C321.291 86.6387 321.956 86.512 322.678 86.512C323.527 86.512 324.274 86.6957 324.92 87.063C325.566 87.4177 326.073 87.9433 326.44 88.64C326.82 89.324 327.029 90.1663 327.067 91.167L326.535 91.186V86.854H327.979V95.803C327.979 97.019 327.789 98.0007 327.409 98.748C327.042 99.508 326.446 100.065 325.623 100.42C324.812 100.775 323.729 100.952 322.374 100.952ZM322.925 95.404C323.533 95.404 324.084 95.271 324.578 95.005C325.085 94.739 325.484 94.359 325.775 93.865C326.079 93.3583 326.231 92.7567 326.231 92.06V91.186C326.231 90.502 326.073 89.9257 325.756 89.457C325.452 88.9883 325.053 88.6337 324.559 88.393C324.065 88.1523 323.527 88.032 322.944 88.032C322.285 88.032 321.703 88.184 321.196 88.488C320.689 88.792 320.297 89.2227 320.018 89.78C319.739 90.3247 319.6 90.9707 319.6 91.718C319.6 92.4653 319.739 93.1177 320.018 93.675C320.309 94.2323 320.702 94.663 321.196 94.967C321.703 95.2583 322.279 95.404 322.925 95.404ZM337.494 97V93.96H337.19V90.445C337.19 89.7483 337.007 89.2227 336.639 88.868C336.285 88.5133 335.759 88.336 335.062 88.336C334.67 88.336 334.264 88.3423 333.846 88.355C333.428 88.3677 333.029 88.3803 332.649 88.393C332.269 88.4057 331.94 88.4247 331.661 88.45V86.854C331.94 86.8287 332.231 86.8097 332.535 86.797C332.852 86.7717 333.175 86.759 333.504 86.759C333.834 86.7463 334.15 86.74 334.454 86.74C335.493 86.74 336.342 86.8667 337 87.12C337.659 87.3607 338.147 87.7597 338.463 88.317C338.78 88.8743 338.938 89.628 338.938 90.578V97H337.494ZM334.169 97.266C333.409 97.266 332.751 97.1393 332.193 96.886C331.649 96.62 331.224 96.24 330.92 95.746C330.629 95.252 330.483 94.6567 330.483 93.96C330.483 93.238 330.642 92.6363 330.958 92.155C331.288 91.6737 331.763 91.3127 332.383 91.072C333.004 90.8187 333.751 90.692 334.625 90.692H337.38V92.06H334.549C333.815 92.06 333.251 92.2373 332.858 92.592C332.466 92.9467 332.269 93.4027 332.269 93.96C332.269 94.5173 332.466 94.967 332.858 95.309C333.251 95.651 333.815 95.822 334.549 95.822C334.98 95.822 335.392 95.746 335.784 95.594C336.177 95.4293 336.5 95.1633 336.753 94.796C337.019 94.416 337.165 93.8967 337.19 93.238L337.684 93.96C337.621 94.682 337.444 95.29 337.152 95.784C336.874 96.2653 336.481 96.6327 335.974 96.886C335.48 97.1393 334.879 97.266 334.169 97.266ZM342.78 97V86.854H344.604V97H342.78ZM341.222 88.298V86.854H344.604V88.298H341.222ZM343.293 85.22C342.888 85.22 342.584 85.1123 342.381 84.897C342.191 84.6817 342.096 84.4093 342.096 84.08C342.096 83.7507 342.191 83.4783 342.381 83.263C342.584 83.0477 342.888 82.94 343.293 82.94C343.698 82.94 343.996 83.0477 344.186 83.263C344.389 83.4783 344.49 83.7507 344.49 84.08C344.49 84.4093 344.389 84.6817 344.186 84.897C343.996 85.1123 343.698 85.22 343.293 85.22ZM348.131 97V86.854H349.575V91.205H349.347C349.347 90.2043 349.48 89.362 349.746 88.678C350.024 87.9813 350.442 87.4557 351 87.101C351.557 86.7337 352.26 86.55 353.109 86.55H353.185C354.464 86.55 355.408 86.949 356.016 87.747C356.636 88.545 356.947 89.6977 356.947 91.205V97H355.123V90.825C355.123 90.0397 354.901 89.4127 354.458 88.944C354.014 88.4627 353.406 88.222 352.634 88.222C351.836 88.222 351.19 88.469 350.696 88.963C350.202 89.457 349.955 90.1157 349.955 90.939V97H348.131ZM367.932 97.304C366.602 97.304 365.57 97.019 364.835 96.449C364.113 95.879 363.74 95.1 363.714 94.112H365.424C365.45 94.5047 365.646 94.8783 366.013 95.233C366.393 95.575 367.033 95.746 367.932 95.746C368.743 95.746 369.364 95.5877 369.794 95.271C370.225 94.9417 370.44 94.5427 370.44 94.074C370.44 93.656 370.282 93.333 369.965 93.105C369.649 92.8643 369.136 92.706 368.426 92.63L367.324 92.516C366.362 92.4147 365.576 92.1297 364.968 91.661C364.36 91.1797 364.056 90.5083 364.056 89.647C364.056 89.001 364.221 88.45 364.55 87.994C364.88 87.5253 365.336 87.1707 365.918 86.93C366.501 86.6767 367.172 86.55 367.932 86.55C369.072 86.55 369.997 86.8033 370.706 87.31C371.416 87.8167 371.783 88.5703 371.808 89.571H370.098C370.086 89.1657 369.896 88.8237 369.528 88.545C369.174 88.2537 368.642 88.108 367.932 88.108C367.223 88.108 366.685 88.2537 366.317 88.545C365.95 88.8363 365.766 89.2037 365.766 89.647C365.766 90.027 365.893 90.331 366.146 90.559C366.412 90.787 366.843 90.9327 367.438 90.996L368.54 91.11C369.63 91.224 370.504 91.528 371.162 92.022C371.821 92.5033 372.15 93.1873 372.15 94.074C372.15 94.7073 371.967 95.271 371.599 95.765C371.245 96.2463 370.751 96.6263 370.117 96.905C369.484 97.171 368.756 97.304 367.932 97.304ZM379.468 97.342C378.581 97.342 377.802 97.19 377.131 96.886C376.46 96.582 375.89 96.183 375.421 95.689C374.965 95.1823 374.617 94.6187 374.376 93.998C374.148 93.3773 374.034 92.744 374.034 92.098V91.756C374.034 91.11 374.154 90.4767 374.395 89.856C374.636 89.2227 374.99 88.659 375.459 88.165C375.928 87.6583 376.498 87.2593 377.169 86.968C377.84 86.664 378.607 86.512 379.468 86.512C380.329 86.512 381.096 86.664 381.767 86.968C382.438 87.2593 383.008 87.6583 383.477 88.165C383.946 88.659 384.3 89.2227 384.541 89.856C384.782 90.4767 384.902 91.11 384.902 91.756V92.098C384.902 92.744 384.782 93.3773 384.541 93.998C384.313 94.6187 383.965 95.1823 383.496 95.689C383.04 96.183 382.476 96.582 381.805 96.886C381.134 97.19 380.355 97.342 379.468 97.342ZM379.468 95.708C380.228 95.708 380.874 95.5433 381.406 95.214C381.951 94.872 382.362 94.416 382.641 93.846C382.932 93.276 383.078 92.6363 383.078 91.927C383.078 91.205 382.932 90.559 382.641 89.989C382.35 89.419 381.932 88.9693 381.387 88.64C380.855 88.3107 380.215 88.146 379.468 88.146C378.733 88.146 378.094 88.3107 377.549 88.64C377.004 88.9693 376.586 89.419 376.295 89.989C376.004 90.559 375.858 91.205 375.858 91.927C375.858 92.6363 375.997 93.276 376.276 93.846C376.567 94.416 376.979 94.872 377.511 95.214C378.056 95.5433 378.708 95.708 379.468 95.708ZM387.634 97V86.854H389.078V91.205H388.85C388.85 90.217 388.976 89.381 389.23 88.697C389.496 88.0003 389.888 87.4683 390.408 87.101C390.927 86.7337 391.586 86.55 392.384 86.55H392.46C393.258 86.55 393.916 86.7337 394.436 87.101C394.968 87.4683 395.36 88.0003 395.614 88.697C395.867 89.381 395.994 90.217 395.994 91.205H395.462C395.462 90.217 395.595 89.381 395.861 88.697C396.127 88.0003 396.519 87.4683 397.039 87.101C397.571 86.7337 398.236 86.55 399.034 86.55H399.11C399.908 86.55 400.573 86.7337 401.105 87.101C401.637 87.4683 402.029 88.0003 402.283 88.697C402.549 89.381 402.682 90.217 402.682 91.205V97H400.858V90.806C400.858 89.9827 400.655 89.3493 400.25 88.906C399.844 88.45 399.281 88.222 398.559 88.222C397.811 88.222 397.21 88.4627 396.754 88.944C396.298 89.4127 396.07 90.0713 396.07 90.92V97H394.246V90.806C394.246 89.9827 394.043 89.3493 393.638 88.906C393.232 88.45 392.669 88.222 391.947 88.222C391.199 88.222 390.598 88.4627 390.142 88.944C389.686 89.4127 389.458 90.0713 389.458 90.92V97H387.634ZM410.334 97.342C409.448 97.342 408.681 97.19 408.035 96.886C407.389 96.582 406.864 96.183 406.458 95.689C406.053 95.1823 405.749 94.6187 405.546 93.998C405.356 93.3773 405.261 92.744 405.261 92.098V91.756C405.261 91.0973 405.356 90.4577 405.546 89.837C405.749 89.2163 406.053 88.659 406.458 88.165C406.864 87.6583 407.377 87.2593 407.997 86.968C408.631 86.664 409.372 86.512 410.22 86.512C411.322 86.512 412.228 86.7527 412.937 87.234C413.659 87.7027 414.191 88.3107 414.533 89.058C414.888 89.8053 415.065 90.6033 415.065 91.452V92.269H406.059V90.901H413.735L413.317 91.642C413.317 90.92 413.203 90.2993 412.975 89.78C412.747 89.248 412.405 88.8363 411.949 88.545C411.493 88.2537 410.917 88.108 410.22 88.108C409.498 88.108 408.897 88.2727 408.415 88.602C407.947 88.9313 407.592 89.381 407.351 89.951C407.123 90.521 407.009 91.1797 407.009 91.927C407.009 92.649 407.123 93.3013 407.351 93.884C407.592 94.454 407.959 94.91 408.453 95.252C408.947 95.5813 409.574 95.746 410.334 95.746C411.132 95.746 411.778 95.5687 412.272 95.214C412.779 94.8593 413.083 94.4477 413.184 93.979H414.894C414.755 94.6757 414.476 95.2773 414.058 95.784C413.64 96.2907 413.115 96.677 412.481 96.943C411.848 97.209 411.132 97.342 410.334 97.342ZM421.607 97.114C420.847 97.114 420.189 97.0063 419.631 96.791C419.087 96.5757 418.662 96.2083 418.358 95.689C418.067 95.157 417.921 94.4413 417.921 93.542V83.776H419.669V93.77C419.669 94.3147 419.815 94.739 420.106 95.043C420.41 95.3343 420.835 95.48 421.379 95.48H423.165V97.114H421.607ZM416.173 88.222V86.854H423.165V88.222H416.173ZM426.239 97V86.854H428.063V97H426.239ZM424.681 88.298V86.854H428.063V88.298H424.681ZM426.752 85.22C426.347 85.22 426.043 85.1123 425.84 84.897C425.65 84.6817 425.555 84.4093 425.555 84.08C425.555 83.7507 425.65 83.4783 425.84 83.263C426.043 83.0477 426.347 82.94 426.752 82.94C427.157 82.94 427.455 83.0477 427.645 83.263C427.848 83.4783 427.949 83.7507 427.949 84.08C427.949 84.4093 427.848 84.6817 427.645 84.897C427.455 85.1123 427.157 85.22 426.752 85.22ZM431.59 97V86.854H433.034V91.205H432.806C432.806 90.217 432.932 89.381 433.186 88.697C433.452 88.0003 433.844 87.4683 434.364 87.101C434.883 86.7337 435.542 86.55 436.34 86.55H436.416C437.214 86.55 437.872 86.7337 438.392 87.101C438.924 87.4683 439.316 88.0003 439.57 88.697C439.823 89.381 439.95 90.217 439.95 91.205H439.418C439.418 90.217 439.551 89.381 439.817 88.697C440.083 88.0003 440.475 87.4683 440.995 87.101C441.527 86.7337 442.192 86.55 442.99 86.55H443.066C443.864 86.55 444.529 86.7337 445.061 87.101C445.593 87.4683 445.985 88.0003 446.239 88.697C446.505 89.381 446.638 90.217 446.638 91.205V97H444.814V90.806C444.814 89.9827 444.611 89.3493 444.206 88.906C443.8 88.45 443.237 88.222 442.515 88.222C441.767 88.222 441.166 88.4627 440.71 88.944C440.254 89.4127 440.026 90.0713 440.026 90.92V97H438.202V90.806C438.202 89.9827 437.999 89.3493 437.594 88.906C437.188 88.45 436.625 88.222 435.903 88.222C435.155 88.222 434.554 88.4627 434.098 88.944C433.642 89.4127 433.414 90.0713 433.414 90.92V97H431.59ZM454.29 97.342C453.404 97.342 452.637 97.19 451.991 96.886C451.345 96.582 450.82 96.183 450.414 95.689C450.009 95.1823 449.705 94.6187 449.502 93.998C449.312 93.3773 449.217 92.744 449.217 92.098V91.756C449.217 91.0973 449.312 90.4577 449.502 89.837C449.705 89.2163 450.009 88.659 450.414 88.165C450.82 87.6583 451.333 87.2593 451.953 86.968C452.587 86.664 453.328 86.512 454.176 86.512C455.278 86.512 456.184 86.7527 456.893 87.234C457.615 87.7027 458.147 88.3107 458.489 89.058C458.844 89.8053 459.021 90.6033 459.021 91.452V92.269H450.015V90.901H457.691L457.273 91.642C457.273 90.92 457.159 90.2993 456.931 89.78C456.703 89.248 456.361 88.8363 455.905 88.545C455.449 88.2537 454.873 88.108 454.176 88.108C453.454 88.108 452.853 88.2727 452.371 88.602C451.903 88.9313 451.548 89.381 451.307 89.951C451.079 90.521 450.965 91.1797 450.965 91.927C450.965 92.649 451.079 93.3013 451.307 93.884C451.548 94.454 451.915 94.91 452.409 95.252C452.903 95.5813 453.53 95.746 454.29 95.746C455.088 95.746 455.734 95.5687 456.228 95.214C456.735 94.8593 457.039 94.4477 457.14 93.979H458.85C458.711 94.6757 458.432 95.2773 458.014 95.784C457.596 96.2907 457.071 96.677 456.437 96.943C455.804 97.209 455.088 97.342 454.29 97.342ZM461.102 97V94.682H463.306V97H461.102Z" fill="black" fill-opacity="0.5"/>
</svg>
