<svg width="57" height="58" viewBox="0 0 57 58" fill="none" xmlns="http://www.w3.org/2000/svg">
<path d="M53.567 29C55.463 29 57.0207 30.5422 56.8005 32.4254C56.1449 38.0345 53.8892 43.3542 50.2765 47.7083C45.9348 52.9409 39.9132 56.4413 33.2783 57.5895C26.6434 58.7377 19.8232 57.4596 14.0256 53.9815C8.22796 50.5034 3.82706 45.0499 1.60225 38.5866C-0.622568 32.1233 -0.527729 25.0674 1.86997 18.6685C4.26766 12.2695 8.81349 6.94048 14.7024 3.62505C20.5913 0.309624 27.4433 -0.778225 34.0449 0.55416C39.5409 1.66342 44.5682 4.39057 48.5211 8.36093C49.8517 9.69738 49.5976 11.8582 48.134 13.0474C46.6348 14.2655 44.4439 13.9934 43.0235 12.6843C40.1346 10.0217 36.5746 8.1872 32.7091 7.40703C27.6979 6.39563 22.4966 7.2214 18.0264 9.73811C13.5562 12.2548 10.1055 16.3001 8.28539 21.1574C6.46532 26.0148 6.39333 31.3709 8.08217 36.2771C9.771 41.1833 13.1117 45.3231 17.5126 47.9632C21.9135 50.6034 27.0906 51.5736 32.1272 50.702C37.1637 49.8305 41.7346 47.1734 45.0303 43.2013C47.5962 40.1089 49.2603 36.3749 49.8715 32.4196C50.1611 30.5459 51.6711 29 53.567 29Z" fill="#500ECE"/>
</svg>
