<svg width="135" height="31" viewBox="0 0 135 31" fill="none" xmlns="http://www.w3.org/2000/svg">
<rect x="0.474609" width="134" height="31" rx="15.5" fill="url(#paint0_linear_1_42)"/>
<path d="M23.2762 16.7636C23.2775 16.9696 23.2148 17.171 23.0969 17.3399C22.979 17.5089 22.8116 17.6371 22.6178 17.707L19.3557 18.907L18.1557 22.1671C18.0847 22.3604 17.9561 22.5272 17.7873 22.645C17.6186 22.7628 17.4177 22.826 17.2118 22.826C17.006 22.826 16.8051 22.7628 16.6363 22.645C16.4675 22.5272 16.3389 22.3604 16.2679 22.1671L15.0654 18.9111L11.8048 17.711C11.6117 17.64 11.4451 17.5114 11.3274 17.3427C11.2097 17.1739 11.1466 16.9731 11.1466 16.7674C11.1466 16.5617 11.2097 16.3609 11.3274 16.1922C11.4451 16.0234 11.6117 15.8949 11.8048 15.8238L15.0669 14.6238L16.2669 11.3642C16.338 11.1711 16.4666 11.0045 16.6353 10.8868C16.804 10.7691 17.0048 10.706 17.2105 10.706C17.4163 10.706 17.617 10.7691 17.7858 10.8868C17.9545 11.0045 18.0831 11.1711 18.1542 11.3642L19.3542 14.6263L22.6138 15.8263C22.8074 15.8952 22.9749 16.0222 23.0935 16.19C23.2121 16.3578 23.2759 16.5582 23.2762 16.7636ZM19.7392 10.7002H20.7498V11.7108C20.7498 11.8448 20.803 11.9733 20.8978 12.0681C20.9925 12.1629 21.1211 12.2161 21.2551 12.2161C21.3891 12.2161 21.5176 12.1629 21.6124 12.0681C21.7071 11.9733 21.7604 11.8448 21.7604 11.7108V10.7002H22.7709C22.9049 10.7002 23.0335 10.647 23.1282 10.5522C23.223 10.4575 23.2762 10.329 23.2762 10.195C23.2762 10.0609 23.223 9.93243 23.1282 9.83767C23.0335 9.74291 22.9049 9.68968 22.7709 9.68968H21.7604V8.67911C21.7604 8.5451 21.7071 8.41658 21.6124 8.32182C21.5176 8.22706 21.3891 8.17383 21.2551 8.17383C21.1211 8.17383 20.9925 8.22706 20.8978 8.32182C20.803 8.41658 20.7498 8.5451 20.7498 8.67911V9.68968H19.7392C19.6052 9.68968 19.4767 9.74291 19.3819 9.83767C19.2872 9.93243 19.2339 10.0609 19.2339 10.195C19.2339 10.329 19.2872 10.4575 19.3819 10.5522C19.4767 10.647 19.6052 10.7002 19.7392 10.7002ZM25.2973 12.7214H24.7921V12.2161C24.7921 12.0821 24.7388 11.9536 24.6441 11.8588C24.5493 11.764 24.4208 11.7108 24.2868 11.7108C24.1528 11.7108 24.0242 11.764 23.9295 11.8588C23.8347 11.9536 23.7815 12.0821 23.7815 12.2161V12.7214H23.2762C23.1422 12.7214 23.0137 12.7746 22.9189 12.8694C22.8242 12.9641 22.7709 13.0926 22.7709 13.2267C22.7709 13.3607 22.8242 13.4892 22.9189 13.5839C23.0137 13.6787 23.1422 13.7319 23.2762 13.7319H23.7815V14.2372C23.7815 14.3712 23.8347 14.4997 23.9295 14.5945C24.0242 14.6893 24.1528 14.7425 24.2868 14.7425C24.4208 14.7425 24.5493 14.6893 24.6441 14.5945C24.7388 14.4997 24.7921 14.3712 24.7921 14.2372V13.7319H25.2973C25.4313 13.7319 25.5599 13.6787 25.6546 13.5839C25.7494 13.4892 25.8026 13.3607 25.8026 13.2267C25.8026 13.0926 25.7494 12.9641 25.6546 12.8694C25.5599 12.7746 25.4313 12.7214 25.2973 12.7214Z" fill="white"/>
<path d="M34.0906 20.5V10.28H36.0786V20.5H34.0906ZM38.475 20.5V12.898H40.015V16.16H39.875C39.875 15.3853 39.9777 14.7413 40.183 14.228C40.3884 13.7053 40.6917 13.3133 41.093 13.052C41.5037 12.7907 42.0124 12.66 42.619 12.66H42.703C43.6084 12.66 44.2944 12.954 44.761 13.542C45.2277 14.1207 45.461 14.9887 45.461 16.146V20.5H43.515V15.978C43.515 15.5113 43.3797 15.1333 43.109 14.844C42.8477 14.5547 42.4837 14.41 42.017 14.41C41.541 14.41 41.1537 14.5593 40.855 14.858C40.5657 15.1473 40.421 15.5393 40.421 16.034V20.5H38.475ZM50.8571 20.598C50.1571 20.598 49.5785 20.5093 49.1211 20.332C48.6731 20.1453 48.3371 19.8373 48.1131 19.408C47.8891 18.9693 47.7771 18.3813 47.7771 17.644L47.7911 10.756H49.6111L49.5971 17.77C49.5971 18.1433 49.6951 18.4327 49.8911 18.638C50.0965 18.834 50.3858 18.932 50.7591 18.932H51.9491V20.598H50.8571ZM46.5731 14.326V12.898H51.9491V14.326H46.5731ZM56.9434 20.766C56.2901 20.766 55.7161 20.654 55.2214 20.43C54.7361 20.206 54.3301 19.9073 54.0034 19.534C53.6861 19.1513 53.4434 18.7267 53.2754 18.26C53.1168 17.7933 53.0374 17.3173 53.0374 16.832V16.566C53.0374 16.062 53.1168 15.5767 53.2754 15.11C53.4434 14.634 53.6861 14.214 54.0034 13.85C54.3301 13.4767 54.7314 13.1827 55.2074 12.968C55.6834 12.744 56.2341 12.632 56.8594 12.632C57.6808 12.632 58.3668 12.814 58.9174 13.178C59.4774 13.5327 59.8974 14.004 60.1774 14.592C60.4574 15.1707 60.5974 15.796 60.5974 16.468V17.168H53.8634V15.978H59.3794L58.7774 16.566C58.7774 16.0807 58.7074 15.6653 58.5674 15.32C58.4274 14.9747 58.2128 14.7087 57.9234 14.522C57.6434 14.3353 57.2888 14.242 56.8594 14.242C56.4301 14.242 56.0661 14.34 55.7674 14.536C55.4688 14.732 55.2401 15.0167 55.0814 15.39C54.9321 15.754 54.8574 16.1927 54.8574 16.706C54.8574 17.182 54.9321 17.6067 55.0814 17.98C55.2308 18.344 55.4594 18.6333 55.7674 18.848C56.0754 19.0533 56.4674 19.156 56.9434 19.156C57.4194 19.156 57.8068 19.0627 58.1054 18.876C58.4041 18.68 58.5954 18.442 58.6794 18.162H60.4714C60.3594 18.6847 60.1448 19.142 59.8274 19.534C59.5101 19.926 59.1041 20.2293 58.6094 20.444C58.1241 20.6587 57.5688 20.766 56.9434 20.766ZM62.2231 20.5V12.898H63.7631V16.118H63.7211C63.7211 15.026 63.9544 14.2 64.4211 13.64C64.8877 13.08 65.5737 12.8 66.4791 12.8H66.7591V14.494H66.2271C65.5737 14.494 65.0651 14.6713 64.7011 15.026C64.3464 15.3713 64.1691 15.8753 64.1691 16.538V20.5H62.2231ZM69.8194 20.5L67.4394 12.898H69.4414L71.7234 20.5H69.8194ZM70.3934 20.5V18.904H72.4514V20.5H70.3934ZM71.1634 20.5L73.1234 12.898H74.9994L72.9414 20.5H71.1634ZM79.0592 20.738C78.1818 20.738 77.5005 20.4487 77.0152 19.87C76.5392 19.2913 76.3012 18.4327 76.3012 17.294V12.884H78.2472V17.462C78.2472 17.9287 78.3778 18.302 78.6392 18.582C78.9005 18.8527 79.2552 18.988 79.7032 18.988C80.1512 18.988 80.5152 18.8433 80.7952 18.554C81.0845 18.2647 81.2292 17.8727 81.2292 17.378V12.884H83.1752V20.5H81.6352V17.266H81.7892C81.7892 18.0313 81.6912 18.6707 81.4952 19.184C81.2992 19.6973 81.0052 20.0847 80.6132 20.346C80.2212 20.6073 79.7312 20.738 79.1432 20.738H79.0592ZM88.8126 20.766C88.1592 20.766 87.5852 20.654 87.0906 20.43C86.6052 20.206 86.1992 19.9073 85.8726 19.534C85.5552 19.1513 85.3126 18.7267 85.1446 18.26C84.9859 17.7933 84.9066 17.3173 84.9066 16.832V16.566C84.9066 16.062 84.9859 15.5767 85.1446 15.11C85.3126 14.634 85.5552 14.214 85.8726 13.85C86.1992 13.4767 86.6006 13.1827 87.0766 12.968C87.5526 12.744 88.1032 12.632 88.7286 12.632C89.5499 12.632 90.2359 12.814 90.7866 13.178C91.3466 13.5327 91.7666 14.004 92.0466 14.592C92.3266 15.1707 92.4666 15.796 92.4666 16.468V17.168H85.7326V15.978H91.2486L90.6466 16.566C90.6466 16.0807 90.5766 15.6653 90.4366 15.32C90.2966 14.9747 90.0819 14.7087 89.7926 14.522C89.5126 14.3353 89.1579 14.242 88.7286 14.242C88.2992 14.242 87.9352 14.34 87.6366 14.536C87.3379 14.732 87.1092 15.0167 86.9506 15.39C86.8012 15.754 86.7266 16.1927 86.7266 16.706C86.7266 17.182 86.8012 17.6067 86.9506 17.98C87.0999 18.344 87.3286 18.6333 87.6366 18.848C87.9446 19.0533 88.3366 19.156 88.8126 19.156C89.2886 19.156 89.6759 19.0627 89.9746 18.876C90.2732 18.68 90.4646 18.442 90.5486 18.162H92.3406C92.2286 18.6847 92.0139 19.142 91.6966 19.534C91.3792 19.926 90.9732 20.2293 90.4786 20.444C89.9932 20.6587 89.4379 20.766 88.8126 20.766ZM98.9757 17.364V15.642H100.964C101.365 15.642 101.701 15.5627 101.972 15.404C102.252 15.2453 102.462 15.026 102.602 14.746C102.751 14.466 102.826 14.144 102.826 13.78C102.826 13.416 102.751 13.094 102.602 12.814C102.462 12.534 102.252 12.3193 101.972 12.17C101.701 12.0113 101.365 11.932 100.964 11.932H98.9757V10.21H100.796C101.654 10.21 102.382 10.35 102.98 10.63C103.586 10.91 104.048 11.3113 104.366 11.834C104.683 12.3473 104.842 12.9587 104.842 13.668V13.892C104.842 14.6013 104.683 15.2173 104.366 15.74C104.048 16.2533 103.586 16.6547 102.98 16.944C102.382 17.224 101.654 17.364 100.796 17.364H98.9757ZM97.2677 20.5V10.21H99.2557V20.5H97.2677ZM109.873 20.766C109.201 20.766 108.608 20.6587 108.095 20.444C107.582 20.2293 107.148 19.94 106.793 19.576C106.438 19.2027 106.168 18.7827 105.981 18.316C105.804 17.8493 105.715 17.364 105.715 16.86V16.566C105.715 16.0433 105.808 15.5487 105.995 15.082C106.191 14.606 106.466 14.186 106.821 13.822C107.185 13.4487 107.624 13.1593 108.137 12.954C108.65 12.7393 109.229 12.632 109.873 12.632C110.517 12.632 111.096 12.7393 111.609 12.954C112.122 13.1593 112.556 13.4487 112.911 13.822C113.275 14.186 113.55 14.606 113.737 15.082C113.924 15.5487 114.017 16.0433 114.017 16.566V16.86C114.017 17.364 113.924 17.8493 113.737 18.316C113.56 18.7827 113.294 19.2027 112.939 19.576C112.584 19.94 112.15 20.2293 111.637 20.444C111.124 20.6587 110.536 20.766 109.873 20.766ZM109.873 19.1C110.349 19.1 110.75 18.9973 111.077 18.792C111.404 18.5773 111.651 18.2927 111.819 17.938C111.987 17.574 112.071 17.1633 112.071 16.706C112.071 16.2393 111.982 15.8287 111.805 15.474C111.637 15.11 111.385 14.8253 111.049 14.62C110.722 14.4053 110.33 14.298 109.873 14.298C109.416 14.298 109.019 14.4053 108.683 14.62C108.356 14.8253 108.104 15.11 107.927 15.474C107.75 15.8287 107.661 16.2393 107.661 16.706C107.661 17.1633 107.745 17.574 107.913 17.938C108.09 18.2927 108.342 18.5773 108.669 18.792C108.996 18.9973 109.397 19.1 109.873 19.1ZM115.819 20.5V10.28H117.765V20.5H115.819ZM114.867 11.736V10.28H117.765V11.736H114.867ZM120.085 20.5V10.28H122.031V20.5H120.085ZM119.133 11.736V10.28H122.031V11.736H119.133Z" fill="white"/>
<defs>
<linearGradient id="paint0_linear_1_42" x1="0.474609" y1="15.5" x2="134.475" y2="15.5" gradientUnits="userSpaceOnUse">
<stop stop-color="#7565D9"/>
<stop offset="1" stop-color="#4D0ACD"/>
</linearGradient>
</defs>
</svg>
